<svg viewBox="0 0 330 200" xmlns="http://www.w3.org/2000/svg"><g><g><g><g><g><line x1="30.68000030517578" y1="178.0299997329712" x2="25.68000030517578" y2="178.0299997329712" style="visibility: inherit;" fill="rgb(0, 0, 0)" stroke="rgb(204, 204, 204)" stroke-width="1px"></line><line x1="30.68000030517578" y1="163.19416642189026" x2="25.68000030517578" y2="163.19416642189026" style="visibility: inherit;" fill="rgb(0, 0, 0)" stroke="rgb(204, 204, 204)" stroke-width="1px"></line><line x1="30.68000030517578" y1="148.35833311080933" x2="25.68000030517578" y2="148.35833311080933" style="visibility: inherit;" fill="rgb(0, 0, 0)" stroke="rgb(204, 204, 204)" stroke-width="1px"></line><line x1="30.68000030517578" y1="133.5224997997284" x2="25.68000030517578" y2="133.5224997997284" style="visibility: inherit;" fill="rgb(0, 0, 0)" stroke="rgb(204, 204, 204)" stroke-width="1px"></line><line x1="30.68000030517578" y1="118.68666648864746" x2="25.68000030517578" y2="118.68666648864746" style="visibility: inherit;" fill="rgb(0, 0, 0)" stroke="rgb(204, 204, 204)" stroke-width="1px"></line><line x1="30.68000030517578" y1="103.85083317756653" x2="25.68000030517578" y2="103.85083317756653" style="visibility: inherit;" fill="rgb(0, 0, 0)" stroke="rgb(204, 204, 204)" stroke-width="1px"></line><line x1="30.68000030517578" y1="89.0149998664856" x2="25.68000030517578" y2="89.0149998664856" style="visibility: inherit;" fill="rgb(0, 0, 0)" stroke="rgb(204, 204, 204)" stroke-width="1px"></line><line x1="30.68000030517578" y1="74.17916655540466" x2="25.68000030517578" y2="74.17916655540466" style="visibility: inherit;" fill="rgb(0, 0, 0)" stroke="rgb(204, 204, 204)" stroke-width="1px"></line><line x1="30.68000030517578" y1="59.34333324432373" x2="25.68000030517578" y2="59.34333324432373" style="visibility: inherit;" fill="rgb(0, 0, 0)" stroke="rgb(204, 204, 204)" stroke-width="1px"></line><line x1="30.68000030517578" y1="44.5074999332428" x2="25.68000030517578" y2="44.5074999332428" style="visibility: inherit;" fill="rgb(0, 0, 0)" stroke="rgb(204, 204, 204)" stroke-width="1px"></line><line x1="30.68000030517578" y1="29.671666622161865" x2="25.68000030517578" y2="29.671666622161865" style="visibility: inherit;" fill="rgb(0, 0, 0)" stroke="rgb(204, 204, 204)" stroke-width="1px"></line><line x1="30.68000030517578" y1="14.835833311080933" x2="25.68000030517578" y2="14.835833311080933" style="visibility: inherit;" fill="rgb(0, 0, 0)" stroke="rgb(204, 204, 204)" stroke-width="1px"></line><line x1="30.68000030517578" y1="0" x2="25.68000030517578" y2="0" style="visibility: inherit;" fill="rgb(0, 0, 0)" stroke="rgb(204, 204, 204)" stroke-width="1px"></line></g><g transform="translate(20.68000030517578, 0)"><text style="text-anchor: end; visibility: hidden; font-family: &quot;Helvetica Neue&quot;, sans-serif; font-size: 12px; font-weight: 200;" x="0" y="178.0299997329712" dx="0em" dy="0.3em" fill="rgb(50, 49, 63)" stroke="none" stroke-width="1px">-5</text><text style="text-anchor: end; visibility: inherit; font-family: &quot;Helvetica Neue&quot;, sans-serif; font-size: 12px; font-weight: 200;" x="0" y="163.19416642189026" dx="0em" dy="0.3em" fill="rgb(50, 49, 63)" stroke="none" stroke-width="1px">0</text><text style="text-anchor: end; visibility: hidden; font-family: &quot;Helvetica Neue&quot;, sans-serif; font-size: 12px; font-weight: 200;" x="0" y="148.35833311080933" dx="0em" dy="0.3em" fill="rgb(50, 49, 63)" stroke="none" stroke-width="1px">5</text><text style="text-anchor: end; visibility: inherit; font-family: &quot;Helvetica Neue&quot;, sans-serif; font-size: 12px; font-weight: 200;" x="0" y="133.5224997997284" dx="0em" dy="0.3em" fill="rgb(50, 49, 63)" stroke="none" stroke-width="1px">10</text><text style="text-anchor: end; visibility: hidden; font-family: &quot;Helvetica Neue&quot;, sans-serif; font-size: 12px; font-weight: 200;" x="0" y="118.68666648864746" dx="0em" dy="0.3em" fill="rgb(50, 49, 63)" stroke="none" stroke-width="1px">15</text><text style="text-anchor: end; visibility: inherit; font-family: &quot;Helvetica Neue&quot;, sans-serif; font-size: 12px; font-weight: 200;" x="0" y="103.85083317756653" dx="0em" dy="0.3em" fill="rgb(50, 49, 63)" stroke="none" stroke-width="1px">20</text><text style="text-anchor: end; visibility: hidden; font-family: &quot;Helvetica Neue&quot;, sans-serif; font-size: 12px; font-weight: 200;" x="0" y="89.0149998664856" dx="0em" dy="0.3em" fill="rgb(50, 49, 63)" stroke="none" stroke-width="1px">25</text><text style="text-anchor: end; visibility: inherit; font-family: &quot;Helvetica Neue&quot;, sans-serif; font-size: 12px; font-weight: 200;" x="0" y="74.17916655540466" dx="0em" dy="0.3em" fill="rgb(50, 49, 63)" stroke="none" stroke-width="1px">30</text><text style="text-anchor: end; visibility: hidden; font-family: &quot;Helvetica Neue&quot;, sans-serif; font-size: 12px; font-weight: 200;" x="0" y="59.34333324432373" dx="0em" dy="0.3em" fill="rgb(50, 49, 63)" stroke="none" stroke-width="1px">35</text><text style="text-anchor: end; visibility: inherit; font-family: &quot;Helvetica Neue&quot;, sans-serif; font-size: 12px; font-weight: 200;" x="0" y="44.5074999332428" dx="0em" dy="0.3em" fill="rgb(50, 49, 63)" stroke="none" stroke-width="1px">40</text><text style="text-anchor: end; visibility: hidden; font-family: &quot;Helvetica Neue&quot;, sans-serif; font-size: 12px; font-weight: 200;" x="0" y="29.671666622161865" dx="0em" dy="0.3em" fill="rgb(50, 49, 63)" stroke="none" stroke-width="1px">45</text><text style="text-anchor: end; visibility: inherit; font-family: &quot;Helvetica Neue&quot;, sans-serif; font-size: 12px; font-weight: 200;" x="0" y="14.835833311080933" dx="0em" dy="0.3em" fill="rgb(50, 49, 63)" stroke="none" stroke-width="1px">50</text><text style="text-anchor: end; visibility: hidden; font-family: &quot;Helvetica Neue&quot;, sans-serif; font-size: 12px; font-weight: 200;" x="0" y="0" dx="0em" dy="0.3em" fill="rgb(50, 49, 63)" stroke="none" stroke-width="1px">55</text></g><line x1="30.68000030517578" y1="0" x2="30.68000030517578" y2="178.0299997329712" fill="rgb(0, 0, 0)" stroke="rgb(204, 204, 204)" stroke-width="1px"></line></g></g><g transform="translate(30, 0)" clip-path="url(#clip_0)"><clipPath id="clip_0"><rect width="299" height="178"></rect></clipPath><g><g><g><line x1="0" y1="0" x2="0" y2="178.0299997329712" fill="rgb(0, 0, 0)" stroke="rgb(60, 60, 60)" stroke-width="1px" opacity="0.25"></line><line x1="29.931999969482423" y1="0" x2="29.931999969482423" y2="178.0299997329712" fill="rgb(0, 0, 0)" stroke="rgb(60, 60, 60)" stroke-width="1px" opacity="0.25"></line><line x1="59.863999938964845" y1="0" x2="59.863999938964845" y2="178.0299997329712" fill="rgb(0, 0, 0)" stroke="rgb(60, 60, 60)" stroke-width="1px" opacity="0.25"></line><line x1="89.79599990844726" y1="0" x2="89.79599990844726" y2="178.0299997329712" fill="rgb(0, 0, 0)" stroke="rgb(60, 60, 60)" stroke-width="1px" opacity="0.25"></line><line x1="119.72799987792969" y1="0" x2="119.72799987792969" y2="178.0299997329712" fill="rgb(0, 0, 0)" stroke="rgb(60, 60, 60)" stroke-width="1px" opacity="0.25"></line><line x1="149.6599998474121" y1="0" x2="149.6599998474121" y2="178.0299997329712" fill="rgb(0, 0, 0)" stroke="rgb(60, 60, 60)" stroke-width="1px" opacity="0.25"></line><line x1="179.5919998168945" y1="0" x2="179.5919998168945" y2="178.0299997329712" fill="rgb(0, 0, 0)" stroke="rgb(60, 60, 60)" stroke-width="1px" opacity="0.25"></line><line x1="209.52399978637695" y1="0" x2="209.52399978637695" y2="178.0299997329712" fill="rgb(0, 0, 0)" stroke="rgb(60, 60, 60)" stroke-width="1px" opacity="0.25"></line><line x1="239.45599975585938" y1="0" x2="239.45599975585938" y2="178.0299997329712" fill="rgb(0, 0, 0)" stroke="rgb(60, 60, 60)" stroke-width="1px" opacity="0.25"></line><line x1="269.3879997253418" y1="0" x2="269.3879997253418" y2="178.0299997329712" fill="rgb(0, 0, 0)" stroke="rgb(60, 60, 60)" stroke-width="1px" opacity="0.25"></line><line x1="299.3199996948242" y1="0" x2="299.3199996948242" y2="178.0299997329712" fill="rgb(0, 0, 0)" stroke="rgb(60, 60, 60)" stroke-width="1px" opacity="0.25"></line></g><g><line x1="0" y1="178.0299997329712" x2="299.3199996948242" y2="178.0299997329712" fill="rgb(0, 0, 0)" stroke="rgb(60, 60, 60)" stroke-width="1px" opacity="0.25"></line><line x1="0" y1="163.19416642189026" x2="299.3199996948242" y2="163.19416642189026" fill="rgb(0, 0, 0)" stroke="rgb(60, 60, 60)" stroke-width="1px" opacity="0.25"></line><line x1="0" y1="148.35833311080933" x2="299.3199996948242" y2="148.35833311080933" fill="rgb(0, 0, 0)" stroke="rgb(60, 60, 60)" stroke-width="1px" opacity="0.25"></line><line x1="0" y1="133.5224997997284" x2="299.3199996948242" y2="133.5224997997284" fill="rgb(0, 0, 0)" stroke="rgb(60, 60, 60)" stroke-width="1px" opacity="0.25"></line><line x1="0" y1="118.68666648864746" x2="299.3199996948242" y2="118.68666648864746" fill="rgb(0, 0, 0)" stroke="rgb(60, 60, 60)" stroke-width="1px" opacity="0.25"></line><line x1="0" y1="103.85083317756653" x2="299.3199996948242" y2="103.85083317756653" fill="rgb(0, 0, 0)" stroke="rgb(60, 60, 60)" stroke-width="1px" opacity="0.25"></line><line x1="0" y1="89.0149998664856" x2="299.3199996948242" y2="89.0149998664856" fill="rgb(0, 0, 0)" stroke="rgb(60, 60, 60)" stroke-width="1px" opacity="0.25"></line><line x1="0" y1="74.17916655540466" x2="299.3199996948242" y2="74.17916655540466" fill="rgb(0, 0, 0)" stroke="rgb(60, 60, 60)" stroke-width="1px" opacity="0.25"></line><line x1="0" y1="59.34333324432373" x2="299.3199996948242" y2="59.34333324432373" fill="rgb(0, 0, 0)" stroke="rgb(60, 60, 60)" stroke-width="1px" opacity="0.25"></line><line x1="0" y1="44.5074999332428" x2="299.3199996948242" y2="44.5074999332428" fill="rgb(0, 0, 0)" stroke="rgb(60, 60, 60)" stroke-width="1px" opacity="0.25"></line><line x1="0" y1="29.671666622161865" x2="299.3199996948242" y2="29.671666622161865" fill="rgb(0, 0, 0)" stroke="rgb(60, 60, 60)" stroke-width="1px" opacity="0.25"></line><line x1="0" y1="14.835833311080933" x2="299.3199996948242" y2="14.835833311080933" fill="rgb(0, 0, 0)" stroke="rgb(60, 60, 60)" stroke-width="1px" opacity="0.25"></line><line x1="0" y1="0" x2="299.3199996948242" y2="0" fill="rgb(0, 0, 0)" stroke="rgb(60, 60, 60)" stroke-width="1px" opacity="0.25"></line></g></g></g><g><g><line x1="0" y1="163.19416642189026" x2="299.3199996948242" y2="163.19416642189026" fill="rgb(0, 0, 0)" stroke="rgb(153, 153, 153)" stroke-width="1.5px"></line></g></g><g><g><line x1="29.931999969482423" y1="0" x2="29.931999969482423" y2="178.0299997329712" fill="rgb(0, 0, 0)" stroke="rgb(153, 153, 153)" stroke-width="1.5px"></line></g></g><g><g><g><g><g><path style="fill: none;" stroke="rgb(0, 119, 187)" stroke-width="2px" d="M30.057714369354247,154.2926664352417L30.43186436897278,135.74787479639053L30.617442768783572,137.64020047382434L31.35077676803589,126.2027614528642L31.53635516784668,117.79507511825217L31.68601516769409,113.18936079961401L31.868600367507934,106.90427422138578L32.96710476638794,110.49060098147878L33.92193556541443,113.80240251339727L34.07758196525574,107.40938531900731L34.2302351651001,109.5543463124269L35.13118836418152,106.07850825070072L35.55023636375427,108.75152936719654L36.83731236244201,109.16530847565704L37.082754762191776,103.47624344880951L37.373095161895755,106.00052479759749L37.96874196128845,113.44997574698313L39.64792715957641,113.17089036997712L39.82452595939636,116.56427426148431L42.85364435630798,110.29180183150058L43.10207995605469,104.15467974552327L43.37745435577392,109.96755095277419L43.428338755722045,111.08147263432673L44.81119715431214,130.73977663300647L45.2990887538147,141.34782937778652L45.930653953170776,123.97526793351005L47.062083552017214,123.04669307006404L47.61283235145569,112.99460961036573L47.861267951202386,104.58962928083024L48.489839950561525,100.73350999237792L49.9834467490387,100.79357260953385L50.01936514900208,100.82961017472856L50.447392748565676,104.41183287669487L50.78263114822388,103.0005662917226L51.3483459476471,116.39620659009194L52.27025154670716,109.0043238190658L53.27297354568481,104.56919420524565L53.377735545578,103.09498312381349L54.075151144866936,102.21045647845759L54.41637594451904,105.24034049192431L54.53909714439392,104.68453756573541L55.368213543548585,104.35105581030739L56.50562954238892,100.59036676146576L56.676241942214965,101.894553328132L57.64903194122314,97.92959860794777L58.27161754058837,106.23242576074547L58.529032740325924,105.27978872743824L58.960053539886474,103.5213398425636L61.058286737747196,95.34507052224932L61.29774273750305,97.56050891950763L62.57284593620301,101.26350528763562L62.75543113601685,103.48530310850093L62.91706393585205,104.81838180101596L64.44958233428956,100.87076235697263L64.5513511341858,100.87592402032372L65.75761073295592,99.69215435344745L65.77257673294068,101.35562588309546L66.34128473236085,97.60624214133748L66.71842793197631,96.5434785611696L68.47543633018493,97.09268707795545L68.9453687297058,97.42221218802693L69.02618512962341,102.36739391361581L72.7168007258606,98.21330295965016L73.83625752471924,96.90771505215727L74.1685027243805,104.4324289618669L74.44986352409363,110.13412397257913L76.24578352226257,119.48947430343887L77.1168047213745,108.48655119354402L78.1704111203003,112.5665973115854L80.38837231803893,112.64089165263726L81.01395111740112,110.31173492749545L81.10674031730652,104.16677423286444L81.76524431663513,115.90906445961002L82.44170751594544,108.71203861701969L88.39218910987854,105.58068977635196L88.7184479095459,102.51501380706483L88.99082910926819,111.35740820947085L89.78103390846252,108.35477819670912L89.95463950828552,111.30066684859797L89.98157830825805,108.3207333801854L90.52634070770263,107.71963996402432L90.76280350746154,112.10645057387357L91.40933470680237,111.1779369451237L91.52606950668334,108.24709543810084L92.12770270606995,118.35725718275185L92.13668230606079,113.7415542455642L92.35518590583801,97.91659916950039L93.02865590515137,112.15895942159159L93.22022070495605,114.77004224841394L93.744030704422,116.33669194450735L95.32743350280761,114.90294843239045L96.51573390159608,118.7901689846662L96.77015590133666,110.44070133205337L96.85396550125121,119.67342071912338L99.18866149887086,115.71811903227359L99.63165509841919,116.90553801482314L99.85614509819031,127.11292272344465L100.05369629798889,122.55555356463931L100.78104389724732,118.63426540446963L100.8738330971527,116.2814925083678L102.20880029579162,107.74862878138788L102.61288229537965,107.37637720474581L102.61886869537354,115.4610929129659L102.73261029525757,112.00385568369263L103.6275770943451,118.23758000033399L103.94485629402162,112.482881271227L104.56444869338989,119.71186201774108L105.51927949241639,113.36745048167127L105.93234109199524,107.18707023025642L107.19247829071045,101.10510874963457L107.29724029060364,99.8296651910344L107.5187370903778,100.25126572076078L110.14078028770447,101.69109270348308L110.14377348770141,98.99438889845703L112.25996588554382,103.31069993987379L112.55329948524475,102.33988657006441L115.36690748237609,100.5705318832923L116.645003881073,100.69578573611552L116.72282708099364,100.77093804780945L116.92037828079225,100.81602943482581L117.33643308036805,102.0299509319221L117.52201148017883,108.69263715461224L118.14459707954407,109.12964889356691L119.21616267845152,102.27065594762085L119.74296587791443,101.71586017471265L119.82078907783509,103.75671604074067L120.24881667739868,99.0468962359251L121.13480387649537,102.15533767746814L121.55983827606201,100.45980254773455L121.84119907577514,103.00308146455382L121.88310387573243,102.15531548487242L123.93643907363891,99.27292256729064L124.04718747352601,96.3566201518551L125.35521587219239,95.79370536748024L125.5228350720215,95.45595649685532L127.01644187049865,77.45030720118326L127.33671427017212,67.83378428866651L127.68093226982117,78.6800038495671L127.99521826950074,86.37460225099392L128.3903206690979,69.62776132389347L128.4142662690735,79.75639007070328L128.80936866867066,88.20730064856211L129.24936906822205,92.09098033039092L129.83004986763,97.98178813414764L129.91385946754457,96.76880615685577L130.91358826652527,96.04101697048064L130.94950666648865,94.4174767937691L131.05726186637878,93.44335268774218L131.218894666214,95.23261155389896L131.32964306610106,98.67990020336599L131.44039146598817,96.00080673350031L131.80855506561278,94.3933506515809L132.78433826461793,79.18647702379155L133.27222986412048,90.23908615018802L133.49372666389465,93.31005163136648L135.75359266159057,92.77889759030059L136.13971546119691,81.7784051816828L137.001757060318,71.6175097418527L137.54651945976258,61.9603724832952L137.79794825950623,76.34282343123078L139.56992265769958,60.048094037376174L139.65971865760804,65.70052304458756L140.23141985702514,70.27884711380086L141.28502625595092,78.96017487976124L142.14407465507506,84.16897153933745L142.96720465423584,83.73364954042377L143.30244305389405,68.04318969755136L145.03550585212707,55.06831379716853L145.82870385131835,69.83385488978183L146.18788785095214,78.69317954534984L146.60992905052186,63.83204103562052L147.55278704956055,54.91535792978296L148.76802624832155,70.92894803423697L149.3876186476898,79.35023543202288L149.71986384735106,61.85254123785144L150.54598704650877,73.90439135419157L151.15659984588623,81.13550142399568L151.65646424537658,61.73683416814862L151.81510384521485,47.72390048486744L152.03360744499207,41.689873604671675L152.77292784423827,48.751257460532514L153.4643570435333,63.66988775802727L154.26653464271547,74.99479926629706L156.04748864089967,77.04227951171306L156.9933398399353,83.01823431850852L157.04721743988037,64.0533405697428L160.19007743667603,50.300670990710444L160.55225463630677,58.665202551701654L160.76776503608704,63.68392148829639L161.04912583580017,63.134552855593796L161.61184743522645,52.12313169199396L161.8513034349823,51.45061231826644L162.23143983459474,47.48650069937051L162.2523922345734,37.986833738714125L162.3840930344391,41.781966881412046L162.54273263427734,42.87218010214434L164.07525103271485,47.08690802924315L164.5182446322632,56.73694477482128L165.73947023101806,70.83503347637347L166.14355223060608,69.79895337821301L166.59552543014524,58.495505335338436L168.57103742813112,63.58210315847846L168.61892862808227,59.51286186304361L168.8553914278412,65.37938373998804L171.51335302513124,54.65689688751699L172.5220614241028,54.15773810046673L172.7226058238983,53.85824282823657L172.8393406237793,46.557345675579654L173.51580382308958,43.36367404887196L173.83308302276612,47.38180439727972L174.1473690224457,42.67148261700552L175.16805022140503,37.47155621906808L177.41295021911623,34.3516003803056L177.64941301887512,38.41396020148048L178.0265562184906,39.66450942929893L179.60995901687625,39.22797230110356L179.75961901672363,61.5165166570293L180.085877816391,48.77857664308232L180.17567381629942,48.257012624032996L182.04343061439513,40.82287422328457L182.5223426139069,61.28659114545144L182.98628861343383,60.50928798500034L183.26465621315,52.921706099410855L184.97377341140745,69.73275693601369L185.58139301078796,60.829520799791794L186.4524142098999,78.03804575090169L186.63499940971374,63.43896075895165L187.61976220870972,62.98757641798696L188.2902390080261,75.77227912715938L188.38901460792542,60.89263411981979L188.84697420745852,50.777980450529554L188.89187220741272,61.32532155736607L189.97241740631105,58.15879290237618L190.6847990055847,45.577075725404L190.71772420555115,60.57851205206369L191.15173820510864,73.13997384271893L191.28343900497435,55.75265095449609L191.93296340431212,51.25459054599477L193.98031220222475,49.742620965780446L194.36942820182801,66.63843919094897L194.50412220169065,54.22546349320707L195.45296660072324,44.40394474478899L196.18330739997862,38.51103349573813L196.8507909992981,36.16215341119411L198.55990819755556,33.56595869558117L199.110656996994,48.624375174624106L199.3710653967285,52.911958402503956L199.90684819618224,44.8027083552536L200.00562379608155,45.87149165133573L201.45732579460145,38.2046949747797L201.99310859405517,33.6046169688461L204.8546077911377,29.657703500399464L205.68971059028624,40.34508873308269L205.77052699020385,46.757519872692626L205.82141139015198,54.16557855111802L207.32100458862305,58.61041375817325L207.46168498847962,42.28744824422279L207.82386218811035,50.296668909149645L208.4464477874756,46.794134653900414L210.0597825858307,43.505747435864436L210.07774178581238,43.906448434815786L210.14359218574523,41.77313570441365L210.4129801854706,45.240614725718245L210.94576978492736,35.45243548963626L213.13080578269958,39.074461267078874L213.3433229824829,41.247676733544466L214.55257578125,38.99100601876438L215.92645457984923,36.45013692500984L217.1476801786041,58.66294876648662L220.03911137565612,54.187635898075555L220.51203697517394,46.75498151748303L221.09271777458193,48.22972221355991L223.05625697257997,50.30143329609247L224.1577545714569,39.67579329674729L225.36401417022705,41.60847595134547L226.28891296928404,41.581218879217914L226.4146273691559,52.246664619919656L227.62986656791688,52.71159873990834L229.8388481656647,68.41982585542571L230.40456296508788,62.41549548121198L230.53925696495054,54.06543059713782L231.79340776367187,69.2321249697634L29.937986369476317,51.03420830094984L30.228326769180295,43.67605829432114L30.862885168533325,40.448034955230355L32.601934366760254,38.5112209517759L32.643839166717534,37.34913254970323L33.45200316589355,36.65187950845964L34.24220796508789,40.9809943432594L34.478670764846804,36.45726325482036L34.828875164489745,58.66722456437296L36.46615556282043,45.882134722602046L36.819353162460324,64.32214744504194L37.0468363622284,62.33062176475465L38.0645243611908,48.08017304283106L39.35758675987243,43.09050380433632L39.734729959487915,43.65730225589891L40.788336358413694,38.063048002404116L40.94098955825806,38.26709544496666L41.00683995819092,40.76325724027714L41.105615558090214,41.07408765257691L41.180445558013915,35.32625257552442L41.95867755722046,31.8775515292929L41.964663957214356,40.490130885532295L42.26997035690308,61.086945142800076L42.27894995689392,73.44503369716077L42.73990275642395,60.683153526707116L43.233780755920414,49.46542542977548L44.089835955047604,47.48225523116241L44.598679954528805,40.3580197875622L46.43949795265198,44.39154517560738L46.82861395225525,37.31672708934269L47.61582555145264,35.44556956735684L51.50698554748536,56.873341687008335L53.69501474525452,42.43207166641031L54.48521954444885,40.888509643370355L54.916240344009395,49.45730574863816L55.056920743865966,41.543050098047644L55.40712514350891,37.98136337257981L55.754336343154904,37.03121800218557L55.775288743133544,36.46113077994906L56.62835074226379,58.669545079450145L58.73257034011841,60.12592701028606L59.432979139404296,47.94422285503637L59.65148273918152,39.448333697000095L30.048734769363403,46.21946685104308L30.252272369155882,39.600346759490606L30.4827487689209,41.56320802899148L30.524653568878175,49.862124780010845L30.641388368759156,48.9071415061901L30.7371707686615,50.7078848716706L32.50914516685486,57.72266421539129L33.640574765701295,50.06286517275895L33.80819396553039,50.21445240672544L34.014724765319826,47.93167141733238L34.20928276512146,65.55186946188014L34.88275276443481,55.947254985538734L34.930643964385986,56.11881962416625L35.36166476394653,44.35309175847803L35.43948796386719,46.788588358156886L35.55023636375427,48.24988631796421L36.69663196258545,47.93979842896212L36.75350276252747,51.31434569022029L37.058809162216185,45.03100739276988L37.84901396141053,41.261004414299634L38.18724556106567,42.55960262187688L30.88982396850586,39.778161551763844L30.991592768402096,49.97796355856076L31.22805556816101,39.48171145422822L32.47921316688537,37.93142685117465L33.96084716537476,37.00125608934246L35.89744756340027,44.7512202864485L36.472141962814334,37.53253215584738L36.726563962554934,35.575052607259636L37.93282356132507,43.895498197198776L38.172279561080934,42.95343222672989L39.18697436004639,42.388192644448594L39.27976355995179,39.675315565306846L39.37853915985108,36.86072265293532L39.719763959503176,31.61136691085298L40.70153355850219,28.461753465603607L42.994324756164545,27.75885206334044L43.24874675590515,36.83204454107431L43.67677435546875,37.52849336816877L44.82915635429382,36.759495999538956L44.99976875411987,36.29809757836105L45.64629995346069,37.20812519054081L46.13419155296325,57.93087506091874L30.228326769180295,52.56152500984835L31.835675167541503,46.966181649433196L32.25771636711121,35.300908978978754L33.85009876548767,37.79667869579791L33.897989965438846,32.172940536570536L35.04139236427307,37.10676429523943L35.72384196357727,31.75899189623547L35.90942036338806,28.550328456833086L36.514046762771606,30.185730387851066L39.07921916015625,40.66190486555365L39.695818359527586,41.01327622774281L40.66561515853882,61.4008323481264L40.73445875846863,58.204099376832374L40.98888075820923,51.53859293451006L40.99786035820008,52.286755728662584L42.15024235702515,70.53865337845123L43.97310115516663,61.31305866525433L44.14969995498657,47.46963518313086L45.16140155395507,51.03224774272154L45.45174195365906,47.23548195404359L46.19405555290222,41.39682248617737L47.48113155158996,33.14616014591172L49.381813549652094,35.316962731071186L50.12412714889526,37.80631094705336L50.94127074806214,34.5524532170968L51.73147554725647,30.22640524934988L51.89909474708557,34.75197645802058L51.99487714698792,35.09358585345004L52.20739434677124,34.11168482582124L53.611205145339966,45.391210858108735L53.68004874526977,36.729659833957015L54.664811544265746,44.58826253321723L55.365220343551634,38.62162416879508L55.55977834335327,35.04164115014177L57.43352154144287,38.82798466338221L58.00222954086304,38.72605744155348L58.54100554031372,35.10430111379682L59.13964553970337,34.118113982029314L59.37910153945923,32.33953503808232L59.708353539123536,33.6461210014871L60.38481673843384,33.24320591464348L60.959511137847905,51.99132350072088L61.16903513763428,52.55839406838909L62.908084335861204,57.64610306853588L64.25801753448486,54.764395144191596L64.57529673416137,51.84850372469856L64.58128313415527,45.351502213456826L65.3894471333313,47.38763463114418L67.43080953125,41.48811409243774L67.49965313117981,35.5746684394409L68.30482393035888,39.14780103696165L68.48142273017883,32.98361394126877L68.72087872993468,37.593168338058405L68.9453687297058,40.35890097613216L69.43026712921143,45.57894055363582L69.7325803289032,40.40289764593271L70.01992752861022,47.97907188528916L70.22346512840271,37.095509785378795L71.49258192710877,35.312839184978515L71.55244592704773,34.24323682473832L73.24659712532043,31.22774207882125L73.34237952522278,55.529511858773475L73.77340032478332,55.8681737481071L74.35707432418823,53.69763755193432L74.44986352409363,40.5266491853659L74.61448952392578,46.86645614406254L74.71925152381897,36.427940340642834L74.74918352378846,46.780964167001684L75.33285752319337,43.497845143725186L76.26374272224427,36.78050707021336L77.550818720932,58.86117085360874L78.53558151992797,47.185369161029996L78.70918711975098,41.3667548103692L80.34946071807862,44.99678618929161L80.39136551803588,42.4273383570991L80.43626351799011,45.63313631732956L80.47517511795044,46.36974842858132L80.98102591743469,65.80158233351597L82.00170711639404,52.536482713860806L82.52851031585693,45.76428960695418L83.01939511535645,64.25144037565319L83.06129991531373,51.606397539143146L84.32443031402589,47.57997183189653L84.49504271385193,65.34084971061866L84.86320631347657,53.446909805008886L85.39000951293944,65.30041249982662L85.68932951263427,51.048914148760716L86.99735791130067,42.49801513812119L89.19436670906066,45.67554238594278L91.4362735067749,53.516392059068096L93.39981270477294,52.286568538510934L93.40280590476989,66.9779410697008L93.5764115045929,59.176631280004074L94.17505150398254,48.561512081753676L95.13586870300293,43.37930722768988L96.24035950187682,34.33565099081926L96.33913510177612,37.2175239029022L96.91981590118408,42.50724764481137L97.42267350067138,34.99928190597865L97.58729950050353,50.671235765749046L97.87464670021058,42.271408108314176L99.24253909881593,44.35271150317209L99.62866189842224,39.66716021565446L100.75111189727784,33.29522944848446L101.4006362966156,31.84580431795544L103.64254309432984,32.163015904524485L103.75927789421083,26.4190095320335L104.35492469360352,27.720072368084857L105.61206869232177,53.42491003233161L106.41125309150695,68.8478126308797L106.8662194910431,59.11168755182494L107.58159429031373,55.64374583416502L108.51547268936156,47.6286474791367L109.01533708885192,42.81958846611974L110.92200548690796,41.121019723196014L112.14921748565675,40.10187847744177L112.18513588562013,40.6772603948757L112.92445628486634,39.83562288044959L113.26268788452148,41.70437370156688L113.74459308403016,33.33069087514545L115.64228188209535,31.867081173952016L115.75602348197937,33.36264868300893L115.97153388175965,37.82058918310247L116.08826868164063,39.308486818272115L116.66894948104859,41.388092064260405L116.76173868095398,36.701521887420995L117.08500428062439,55.25317974927387L118.52174027915954,52.141774487747895L119.09044827857971,57.396131320151184L119.43765947822571,45.11947877606897L120.18296627746582,42.50095390916553L121.56283147605896,42.116705653909975L122.33208387527466,32.391223381664815L122.601471875,32.490267342750116L123.51140467407227,56.28702701713078L124.01426227355958,52.76208284846206L125.53780107200623,63.70264966101206L129.16855266830444,75.01445640808794L129.1715458683014,56.87734049371751L129.58760066787718,51.92940426952761L129.67739666778564,44.21317587546778L129.8001178676605,53.82583881766959L131.09318026634216,45.35103660435297L132.20066426521302,37.89242194659005L133.44882866394045,31.04351982215934L133.48474706390382,30.494778542160333L133.79903306358338,30.165533774160934L134.78379586257935,27.59425358358837L136.40311706092834,33.17268545856365L136.4749538608551,36.51974458354883L136.5737294607544,42.088580053199365L138.16311865913391,35.9349480158979L139.84829025741578,39.363968782835855L140.02189585723877,36.67391458345273L140.69536585655214,31.499282069163456L141.43468625579834,28.394502560589842L145.61618665153503,26.531634855445702L146.3585002507782,52.71184752474815L146.51713985061645,51.803841817918965L146.84339865028383,51.25903839382144L147.7922430493164,53.30588966913588L148.1753726489258,52.16026710455159L148.45972664863586,43.164826911595696L148.9027202481842,53.196829439346345L148.99850264808654,67.52409761020203L149.1810878479004,54.75685854475893L149.88149664718628,43.5359151108336L150.45619104660034,37.99021571536491L150.76748384628297,39.41026273762961L152.09646464492798,40.262290950988415L152.97646544403077,37.212907884344276L153.49129584350587,37.75701137413074L153.75469744323732,29.775406813797247L153.7906158432007,34.481377396689L153.81456144317627,40.865559741083445L154.04204464294432,35.20113582862834L154.1707522428131,48.41861478956591L155.30816824165345,37.35923552794489L155.74517544120786,53.27407460381524L157.63687783927915,53.32804473024571L158.30436143859865,52.17356014121748L159.99551943687436,68.09700269621119L160.02844463684082,58.66120159102381L160.56123423629762,47.06538760347905L160.7228670361328,43.668499205611596L161.14790143569945,41.63036616689112L163.54246143325804,32.0994196894535L164.26082943252564,56.05251842515281L165.1288574316406,66.86377767191296L165.4640958312988,76.91113321462848L167.0864102296448,60.389079907414796L167.52641062919616,51.66271458797304L168.63090142807008,44.053162066535066L168.66981302803038,45.42176387810463L168.92423502777098,56.92472494902465L170.13049462654112,48.39723494805247L170.44777382621766,37.34640762303681L172.33947622428894,39.023977882232714L173.10872862350462,34.096186713317906L174.11743702247617,32.32637867685551L174.5634238220215,33.638227184751L175.50628182106018,36.799069619261246L175.52124782104494,39.88244174485388L175.56614582099914,39.358731690436485L176.55390181999206,33.11017233335369L176.6496842198944,31.73477004887698L178.176216218338,34.470128672850336L178.23308701828003,56.288077150304446L178.54138661796568,46.82837960393388L179.37648941711427,38.77882774633858L182.2888730141449,41.07029662110028L183.24370381317138,37.69771128641136L183.6777178127289,47.54282673446278L183.8154050125885,40.39436268954242L185.38982821098327,42.039617587022576L185.5095562108612,37.09243720107827L185.59935221076967,40.0584622939441L185.62928421073914,43.024944014550044L185.8567674105072,41.2442330522542L185.95853621040345,31.867739820671375L186.3117338100433,32.17617720615405L187.70955820861818,29.987506307670685L188.4249330078888,32.23490376324011L189.1223486071777,34.77020890146824L191.01105780525208,35.104525319518615L191.11881300514221,29.370781845916525L191.4091534048462,28.30426909152817L192.03772540420533,27.664361438895156L192.04071860420225,39.14908349618011L192.9356854032898,40.10558340611871L193.6989514025116,33.55828336276301L194.1209926020813,40.3117033207279L195.00099340118408,40.80315530084735L195.467932600708,38.7242931591461L196.15337540000914,41.037575868784785L196.81487259933473,43.612412159454465L197.19201579895022,51.091647258288646L198.11392139801026,59.13978831224857L198.2905201978302,50.9131396308733L198.64671099746704,44.79028375716166L199.01786779708863,42.3034368978212L202.5588233934784,32.503262128011556L202.79827939323425,27.810023931012267L204.35773659164428,38.0496143265639L205.5071253904724,38.25903523946252L29.997850369415286,33.63722112765575L30.300163569107056,37.98533264989058L32.389417166976926,35.84673290368559L32.685743966674806,58.30090635369204L33.092819166259765,50.409810455739404L33.45798956588745,42.11455292230838L33.63159516571045,43.071731726682174L33.83812596549988,40.085439014646994L33.85009876548767,37.10679672253943L34.15241196517944,36.50647801216138L34.409827164917,36.146286785934535L36.139896763153075,33.55643872042546L36.8612579624176,37.936863205552385L37.4688775617981,39.37825123174207L37.621530761642454,33.121884058137056L37.82806156143188,35.302397078406415L39.4174507598114,57.97430485852455L39.47432155975342,41.90578290443361L40.07894795913696,35.825269726638425L40.39323395881652,32.17696181996132L40.929016758270265,40.66977705993335L40.97092155822754,36.270532884824746L41.07867675811767,28.883519720213712L41.201397957992555,32.7593784756524L41.48275875770569,33.89802706402915L41.629425557556154,33.394349552168705L42.16820155700684,33.09214304505244L42.428609956741326,56.648152438512156L42.4824875566864,44.670691447085574L42.88656955627441,46.97914817132141L30.114585169296266,41.24302221654406L30.84193276855469,55.604346616974794L33.206560766143795,52.35247460836847L33.407105165939335,42.09328474899934L33.58969036575317,41.87210415781027L36.09499876319885,39.36566247332385L36.52302636276245,34.3011974679726L38.094456361160276,37.1968517891942L39.27677035995484,43.68171104147308L39.6838455595398,40.451426603521526L39.72874355949401,42.07385593541002L41.44684035774231,44.2341801994296L41.69527595748902,36.03544143874956L42.473507956695556,29.92933151745504L42.994324756164545,31.01313222422425L43.212828355941774,26.915945988739878L43.64983555549621,31.578834236768074L43.706706355438236,39.124033845130924L43.90425755523682,37.71682028571627L44.386162754745484,32.12502549052155L44.658543954467774,34.704281937837095L44.80221755432129,31.504369146680517L45.379905153732295,31.958154801759548L45.93664035316467,40.53849284901227L46.28983795280457,52.807895666682754L46.63106275245667,41.17967071910144L49.06453434997559,40.13706907498505L49.45365034957886,33.57717476408283L49.92956914909363,35.575571501973855L50.72276714828491,35.587742879822L51.06399194793701,33.221312376757936L51.83324434715271,46.0438540535572L53.099367945861815,46.61617907031791L53.24902794570923,41.02524075594198L53.763858345184325,37.67067776731642L53.87460674507142,38.031673303914005L54.61392714431763,34.687670631213166L55.96386034294128,38.615602352025036L56.04766994285583,35.03802806007974L56.577466342315674,31.704616820026132L58.33148154052734,27.330836746220996L58.400325140457156,40.135835345462084L58.906175939941406,41.884501180574375L58.909169139938356,32.25190069766347L59.097740739746094,28.846073737689863L60.22617713859558,43.41871087011637L60.4386943383789,62.8440931335505L60.84277633796692,53.13572252365448L61.857471136932375,50.87130015237628L62.360328736419675,44.76518007006345L64.33584073440552,45.84897468022166L66.32931193237305,38.191184792111244L66.91897233177185,35.97024418901796L67.03870033164978,39.385146486707924L68.84659312980652,34.31288787600303L69.24768192939759,37.203866034012464L69.85530152877807,43.685919588364044L70.44496192817688,38.08021840188317L71.3459151272583,41.8379976793135L71.41475872718812,38.15833192133934L71.98945312660217,39.51113246121423L73.05802552551269,60.49954608820926L73.28850192527771,55.289594291109125L73.89312832466126,48.603023218189634L74.14755032440185,39.843613914892046L74.4797955240631,60.69903496041594L74.63244872390747,51.84868761977373L75.37476232315063,46.538479215388406L76.55108992195129,42.16548750787072L76.9791175215149,39.54169248336015L77.60469632087708,40.34114879842673L78.08360832038879,49.128889241672L78.59544551986694,42.5328668587544L79.06537791938781,40.94898675877681L80.40034511802673,39.99865869879028L81.09177431732178,40.615328527684824L82.04660511634827,31.49039710592973L82.3159931160736,28.389171582649624L82.98946311538697,26.528436268681588L83.90837551445009,24.225128415414247L86.05449991226196,26.403743698113317L87.27572551101684,33.645246192165104L87.39246031089783,32.05581436416381L87.42239231086731,32.28902193224951L89.10457070915223,35.989546467760334L89.65831270858764,58.38659449213691L91.32253190689086,71.82482330676285L91.68470910652161,56.150427297808946L91.92715830627442,49.119523022209535L92.28933550590514,48.46158045150932L93.07056070510865,46.879948244202694L93.63627550453187,38.8097689304999L95.63872630249024,32.780794677391725L96.33614190177919,29.163410125526838L97.72199350036621,28.179846059294363L97.9015855001831,31.150307614214313L98.20988509986879,42.427517866258086L98.52417109954834,48.00697735259786L99.04199469902039,43.04658639019641L100.62839069740295,35.322885153209654L101.2330170967865,33.062397740790544L101.27791509674073,30.519238628452598L102.13097709587097,55.10440978855226L103.63356349433899,59.1737125006338L105.42948349250793,53.307227473677386L105.70485789222718,48.600469792617076L106.08200109184266,45.7764151839809L106.94703589096069,41.708249089026225L108.35084668952942,42.82794942671288L108.36880588951111,43.49976962932482L108.47057468940734,45.089728415778495L108.85969068901062,49.6043036823101L109.95220868789673,66.55544882086679L110.88309388694763,75.53926923911429L111.40091748641969,56.00536152744685L112.25697268554687,43.0981502355599L113.3015994844818,37.72755679020068L113.39139548439026,35.692067387871646L114.16663428359985,33.28390708158773L115.49860828224182,34.21274422759035L115.5105810822296,31.20944652053248L115.67520708206177,37.715534550503065L116.15112588157653,29.75052071962068L116.55221468116761,28.532112415750674L116.7377930809784,38.482867417406936L117.25561668045043,31.397787104649495L118.60554987907409,33.08107224142739L119.84772787780761,30.530443328834707L120.84446347679138,34.93439930571145L121.0060962766266,32.82930623229163L121.17072227645875,45.8086503668774L121.18568827644349,46.47505685831004L122.00881827560424,44.50116742339665L122.14949867546082,44.503700427335104L122.1554850754547,40.9446202350388L122.79303667480468,38.809172119660985L123.12827507446289,35.15416992066136L123.76283347381592,34.148035266148014L124.09507867347718,34.731221138326504L124.77752827278138,44.57606598072542L126.56147547096252,35.05370624264057L127.49834707000733,34.08775705933556L129.1655594683075,57.24552084708205L130.3329074671173,46.21597915711396L131.01236386642455,44.34572080267901L131.05127546638488,63.40029909308812L131.67984746574402,52.28257943449057L131.92528986549377,43.23821430955911L132.37726306503296,40.18532856437315L132.4610726649475,38.353597117261586L133.0866514643097,34.88082491922171L133.41291026397704,36.357761595057184L133.58052946380616,43.17825692499085L133.73018946365357,46.08368745806459L135.10706146224976,44.26634578324939L135.32855826202393,52.67087409745207L136.133729061203,42.2843244424495L136.27141626106263,39.6129946441074L136.51386546081542,36.82333010021566L137.4297846598816,33.96266470899414L139.98897065727235,35.80686546892065L140.05182785720825,34.539652595103604L140.07278025718688,39.713658195245756L140.1416238571167,41.63119489044459L140.26135185699462,38.03425024801797L141.46461825576782,38.24981679233494L142.09019705513,33.631690059379224L143.30244305389405,32.04768068449226L143.61373585357666,34.657875054219545L148.92067944816588,57.58759164401242L152.26707704475402,46.42122163527222L152.78490064422607,44.46886628957398L153.4613638435364,42.110586417268536L153.5691190434265,38.32188516411236L155.65837264129638,37.235531077105094L156.12231864082335,30.649385300468367L157.12803383979798,33.8188978238052L158.10082383880615,28.599405348488432L158.14572183876038,40.89697650682254L158.45402143844603,32.84625255829883L158.7922530381012,39.88448483804936L159.1095322377777,41.73369087612676L161.73456863510134,35.722014509654315L162.4230046343994,34.48874201954379L162.57266463424682,33.74877852547749L163.25810743354796,28.557333769491805L163.62627103317263,37.31113356476516L165.98191943077086,40.189680112156196L166.8379746298981,39.543074710817905L167.46355342926026,35.59451147535549L168.78355462791444,49.841506842488684L168.79552742790224,40.58670408947148L170.0047802266693,44.52875575675296L170.08858982658387,39.772786767802984L171.21103982543943,41.66667203397893L171.2200194254303,54.67166984254922L172.3664150242615,44.67166855439427L172.85430662376402,41.04540111127426L173.01893262359619,41.24337397517519L174.94056702163695,35.427824369083396L176.41621462013245,40.24656125963361L177.5656034189606,43.137803393963736L177.96968541854858,63.86241531274544L179.23580901725768,53.74671583117143L179.5919998168945,50.05102947199998L180.34329301612854,38.33868433740528L181.1095522153473,34.87187725130789L181.89377061454772,57.715992962265446L184.5846574118042,53.61946241554287L184.8570386115265,83.20694403944412L186.44942100990295,71.28776639162301L186.92533980941775,68.88372646247625L188.065749008255,52.01203586146403L188.48180380783083,47.82335482528907L188.89187220741272,39.37581287915168L190.51119340576173,46.17595436033403L191.79228300445556,64.49843922768112L193.32480140289306,54.12833018013285L194.99800020118712,40.785064762285L195.6026266005707,43.46090549555461L195.82412340034483,41.50580994085692L197.17106339897157,47.45395259735719L197.43446499870302,42.714771537052L197.47337659866332,42.244996230641846L198.4072549977112,36.02879772236338L198.96399019714354,33.485945282282785L199.06575899703978,26.025900493802055L200.3947397956848,23.923606950486572L200.58331139549256,32.15716414358906L202.08589779396058,27.602365140358728L202.11882299392698,28.430085733080006L202.72644259330747,32.487318083372145L203.07365379295348,37.29539082332042L203.91174979209902,42.553967797062285L204.91746499107362,37.401047327102134L205.11800939086913,41.430495034444874L205.86930259010316,47.408763653509936L206.77324898918152,39.12705817608423L207.2312085887146,37.718634884288235L209.8053605860901,35.68671424432415L211.430668184433,41.588761849664564L211.66114458419798,40.382523753322886L213.72944578208921,45.59311421995028L214.38196338142396,41.59826851060788L214.48672538131714,34.453894425456525L215.9533933798218,31.354136639252175L216.13897177963256,55.60534859503203L216.30359777946472,47.60560913565692L218.1084973776245,40.432032130258904L219.97326097572326,39.6884859216795L220.18278497550963,30.934291542326548L220.26958777542114,51.79284154221723L222.188228973465,67.86857153681105L222.28999777336122,54.963542900724335L223.09516857254027,44.84679238929934L224.4600677711487,38.77674208244437L224.77136057083132,32.760978568558414L225.20537457038878,33.89898711977273L225.7022457698822,27.460592261182484L226.75884536880494,47.334888643757836L226.82768896873475,41.45646650000592L227.276668968277,61.66674651148425L228.4440169670868,48.868714555755304L229.90769176559448,44.75049537697734L230.63204616485595,45.84016386437L230.94333896453858,36.999031637713784L231.45816936401366,34.068085631493034L231.67068656379698,38.243851352192934L232.55368056289672,40.749310784612874L232.87993936256407,36.31825311963246L234.2448385611725,37.22021851530366L234.59204976081847,37.76139775270639L235.88810535949708,34.52550530048856L236.07667695930482,37.33143648870379L237.22007935813903,30.706928547427594L237.91749495742798,50.46955708039138L238.204842157135,43.33726756198604L240.64430015464782,39.05789385094286L241.03640935424804,36.49026962431694L242.67368975257872,39.69716174788729L243.1615813520813,35.68696369759709L243.87096975135802,39.21517819185539L244.25110615097046,34.2109068990915L245.8105633493805,43.07701077229791L246.3313801488495,46.022939766448815L246.588795348587,44.22989716827993L246.6726049485016,37.21973828494623L247.66335414749148,31.82677629005954L250.78526174430846,30.964732422900454L251.0785953440094,29.260639437718538L251.11451374397276,29.42505031149588L251.4078473436737,29.52369683576231L251.82689534324646,26.022284755662696L252.34771214271544,28.66890416714884L254.2693465407562,35.004342473586405L254.53574134048463,30.49753880324363L255.2600957397461,31.354056595697415L255.4217285395813,30.681100606283195L255.92757933906555,25.529860353088765L255.93356573905945,24.812849530945073L256.5441785384369,23.195776372772343L257.2236349377441,23.41239914275522L257.77737693717955,21.168639474971968L257.78635653717043,23.382983668961458L258.0707105368805,28.272190180014576L258.8728881360626,31.205714086646452L259.02254813591003,27.031495106193205L259.1213237358093,28.087563712580675L259.893569335022,25.160604881753727L260.354522134552,26.965029577916994L260.74064493415835,26.860817730728485L260.7885361341095,27.98515728730183L261.36323053352356,47.64962765942943L261.8301697330475,42.832176574295346L262.74608893211365,43.50230591787434L263.12921853172304,40.3437835293623L263.709899331131,39.63553676114154L264.5599681302643,40.39745536509557L265.0807849297333,34.920273203035606L266.8767049279022,37.56829723023199L268.1847333265686,43.90457830609574L268.5259581262207,39.39828029740866L268.57983572616575,39.068234821969355L269.3071833254242,42.43080753136519L30.21036756919861,36.140284502797385L31.94043716743469,39.487170674975545L31.94642356742859,36.74783571873655L31.985335167388914,30.356768085447243L32.425335566940305,32.456460829906064L32.955131966400145,57.453609774310834L33.33826156600952,43.9670991836783L33.502887565841675,38.24892615907174L33.98778596534729,43.1260889985131L34.17635756515503,47.23925336706438L34.89771876441956,41.39908533398986L35.43948796386719,36.708117849258656L36.271597563018794,33.89353735841996L36.69663196258545,58.31585569141916L37.16357116210938,53.97938005303507L37.444931961822505,62.0592946539829L38.720035160522464,51.47797677102743L40.07296155914307,51.06351936568652L41.26126195793152,40.1330449385037L41.72221475746154,34.76162694708049L42.22507235694885,30.351909487340095L42.647113556518555,34.827279000814684L30.743157168655394,35.138767379126506L30.868871568527222,37.69939373588656L32.65880516670227,34.48830289039668L33.43105076591492,36.12224837776219L34.35894276496887,29.981415680862625L34.90370516441345,36.97871604670115L34.95458956436157,44.737696260863714L36.52302636276245,44.64561772981534L36.88819676239014,36.282303956980996L37.60057836166382,58.56224898566933L37.71431996154785,51.75348269981224" fill="none"></path></g></g></g></g><g opacity="0.2"><g><g><g><path style="fill: none;" stroke="rgb(0, 119, 187)" stroke-width="2px" d="M30.057714369354247,154.2926664352417L30.43186436897278,124.62099981307983L30.617442768783572,139.45683312416077L31.35077676803589,112.75233316421509L31.53635516784668,106.81799983978271L31.68601516769409,106.81799983978271L31.868600367507934,97.91649985313416L32.96710476638794,115.71949982643127L33.92193556541443,118.68666648864746L34.07758196525574,97.91649985313416L34.2302351651001,112.75233316421509L35.13118836418152,100.88366651535034L35.55023636375427,112.75233316421509L36.83731236244201,109.7851665019989L37.082754762191776,94.94933319091797L37.373095161895755,109.7851665019989L37.96874196128845,124.62099981307983L39.64792715957641,112.75233316421509L39.82452595939636,121.65383315086365L42.85364435630798,100.88366651535034L43.10207995605469,94.94933319091797L43.37745435577392,118.68666648864746L43.428338755722045,112.75233316421509L44.81119715431214,160.22699975967407L45.2990887538147,157.25983309745789L45.930653953170776,97.91649985313416L47.062083552017214,121.65383315086365L47.61283235145569,97.91649985313416L47.861267951202386,91.98216652870178L48.489839950561525,94.94933319091797L49.9834467490387,100.88366651535034L50.01936514900208,100.88366651535034L50.447392748565676,109.7851665019989L50.78263114822388,100.88366651535034L51.3483459476471,136.48966646194458L52.27025154670716,97.91649985313416L53.27297354568481,97.91649985313416L53.377735545578,100.88366651535034L54.075151144866936,100.88366651535034L54.41637594451904,109.7851665019989L54.53909714439392,103.85083317756653L55.368213543548585,103.85083317756653L56.50562954238892,94.94933319091797L56.676241942214965,103.85083317756653L57.64903194122314,91.98216652870178L58.27161754058837,118.68666648864746L58.529032740325924,103.85083317756653L58.960053539886474,100.88366651535034L61.058286737747196,83.08066654205322L61.29774273750305,100.88366651535034L62.57284593620301,106.81799983978271L62.75543113601685,106.81799983978271L62.91706393585205,106.81799983978271L64.44958233428956,94.94933319091797L64.5513511341858,100.88366651535034L65.75761073295592,97.91649985313416L65.77257673294068,103.85083317756653L66.34128473236085,91.98216652870178L66.71842793197631,94.94933319091797L68.47543633018493,97.91649985313416L68.9453687297058,97.91649985313416L69.02618512962341,109.7851665019989L72.7168007258606,91.98216652870178L73.83625752471924,94.94933319091797L74.1685027243805,115.71949982643127L74.44986352409363,118.68666648864746L76.24578352226257,133.5224997997284L77.1168047213745,91.98216652870178L78.1704111203003,118.68666648864746L80.38837231803893,112.75233316421509L81.01395111740112,106.81799983978271L81.10674031730652,94.94933319091797L81.76524431663513,133.5224997997284L82.44170751594544,97.91649985313416L88.39218910987854,100.88366651535034L88.7184479095459,97.91649985313416L88.99082910926819,124.62099981307983L89.78103390846252,103.85083317756653L89.95463950828552,115.71949982643127L89.98157830825805,103.85083317756653L90.52634070770263,106.81799983978271L90.76280350746154,118.68666648864746L91.40933470680237,109.7851665019989L91.52606950668334,103.85083317756653L92.12770270606995,133.5224997997284L92.13668230606079,106.81799983978271L92.35518590583801,74.17916655540466L93.02865590515137,133.5224997997284L93.22022070495605,118.68666648864746L93.744030704422,118.68666648864746L95.32743350280761,112.75233316421509L96.51573390159608,124.62099981307983L96.77015590133666,97.91649985313416L96.85396550125121,133.5224997997284L99.18866149887086,109.7851665019989L99.63165509841919,118.68666648864746L99.85614509819031,142.42399978637695L100.05369629798889,115.71949982643127L100.78104389724732,112.75233316421509L100.8738330971527,112.75233316421509L102.20880029579162,94.94933319091797L102.61288229537965,106.81799983978271L102.61886869537354,127.58816647529602L102.73261029525757,106.81799983978271L103.6275770943451,127.58816647529602L103.94485629402162,103.85083317756653L104.56444869338989,130.5553331375122L105.51927949241639,103.85083317756653L105.93234109199524,97.91649985313416L107.19247829071045,91.98216652870178L107.29724029060364,97.91649985313416L107.5187370903778,100.88366651535034L110.14078028770447,103.85083317756653L110.14377348770141,94.94933319091797L112.25996588554382,109.7851665019989L112.55329948524475,100.88366651535034L115.36690748237609,97.91649985313416L116.645003881073,100.88366651535034L116.72282708099364,100.88366651535034L116.92037828079225,100.88366651535034L117.33643308036805,103.85083317756653L117.52201148017883,118.68666648864746L118.14459707954407,109.7851665019989L119.21616267845152,91.98216652870178L119.74296587791443,100.88366651535034L119.82078907783509,106.81799983978271L120.24881667739868,91.98216652870178L121.13480387649537,106.81799983978271L121.55983827606201,97.91649985313416L121.84119907577514,106.81799983978271L121.88310387573243,100.88366651535034L123.93643907363891,94.94933319091797L124.04718747352601,91.98216652870178L125.35521587219239,94.94933319091797L125.5228350720215,94.94933319091797L127.01644187049865,50.44183325767517L127.33671427017212,53.40899991989137L127.68093226982117,94.94933319091797L127.99521826950074,97.91649985313416L128.3903206690979,44.5074999332428L128.4142662690735,94.94933319091797L128.80936866867066,100.88366651535034L129.24936906822205,97.91649985313416L129.83004986763,106.81799983978271L129.91385946754457,94.94933319091797L130.91358826652527,94.94933319091797L130.94950666648865,91.98216652870178L131.05726186637878,91.98216652870178L131.218894666214,97.91649985313416L131.32964306610106,103.85083317756653L131.44039146598817,91.98216652870178L131.80855506561278,91.98216652870178L132.78433826461793,56.376166582107544L133.27222986412048,106.81799983978271L133.49372666389465,97.91649985313416L135.75359266159057,91.98216652870178L136.13971546119691,65.2776665687561L137.001757060318,56.376166582107544L137.54651945976258,47.474666595458984L137.79794825950623,97.91649985313416L139.56992265769958,35.60599994659424L139.65971865760804,74.17916655540466L140.23141985702514,77.14633321762085L141.28502625595092,91.98216652870178L142.14407465507506,91.98216652870178L142.96720465423584,83.08066654205322L143.30244305389405,44.5074999332428L145.03550585212707,35.60599994659424L145.82870385131835,91.98216652870178L146.18788785095214,91.98216652870178L146.60992905052186,41.54033327102661L147.55278704956055,41.54033327102661L148.76802624832155,94.94933319091797L149.3876186476898,91.98216652870178L149.71986384735106,35.60599994659424L150.54598704650877,91.98216652870178L151.15659984588623,91.98216652870178L151.65646424537658,32.63883328437805L151.81510384521485,26.70449995994568L152.03360744499207,32.63883328437805L152.77292784423827,59.34333324432373L153.4643570435333,86.0478332042694L154.26653464271547,91.98216652870178L156.04748864089967,80.11349987983702L156.9933398399353,91.98216652870178L157.04721743988037,35.60599994659424L160.19007743667603,29.671666622161865L160.55225463630677,71.21199989318848L160.76776503608704,71.21199989318848L161.04912583580017,62.31049990653992L161.61184743522645,35.60599994659424L161.8513034349823,50.44183325767517L162.23143983459474,41.54033327102661L162.2523922345734,23.737333297729492L162.3840930344391,47.474666595458984L162.54273263427734,44.5074999332428L164.07525103271485,53.40899991989137L164.5182446322632,71.21199989318848L165.73947023101806,91.98216652870178L166.14355223060608,68.24483323097229L166.59552543014524,41.54033327102661L168.57103742813112,71.21199989318848L168.61892862808227,53.40899991989137L168.8553914278412,74.17916655540466L171.51335302513124,38.573166608810425L172.5220614241028,53.40899991989137L172.7226058238983,53.40899991989137L172.8393406237793,35.60599994659424L173.51580382308958,38.573166608810425L173.83308302276612,53.40899991989137L174.1473690224457,35.60599994659424L175.16805022140503,29.671666622161865L177.41295021911623,29.671666622161865L177.64941301887512,44.5074999332428L178.0265562184906,41.54033327102661L179.60995901687625,38.573166608810425L179.75961901672363,94.94933319091797L180.085877816391,29.671666622161865L180.17567381629942,47.474666595458984L182.04343061439513,29.671666622161865L182.5223426139069,91.98216652870178L182.98628861343383,59.34333324432373L183.26465621315,41.54033327102661L184.97377341140745,94.94933319091797L185.58139301078796,47.474666595458984L186.4524142098999,103.85083317756653L186.63499940971374,41.54033327102661L187.61976220870972,62.31049990653992L188.2902390080261,94.94933319091797L188.38901460792542,38.573166608810425L188.84697420745852,35.60599994659424L188.89187220741272,77.14633321762085L189.97241740631105,53.40899991989137L190.6847990055847,26.70449995994568L190.71772420555115,83.08066654205322L191.15173820510864,91.98216652870178L191.28343900497435,29.671666622161865L191.93296340431212,44.5074999332428L193.98031220222475,47.474666595458984L194.36942820182801,91.98216652870178L194.50412220169065,35.60599994659424L195.45296660072324,29.671666622161865L196.18330739997862,29.671666622161865L196.8507909992981,32.63883328437805L198.55990819755556,29.671666622161865L199.110656996994,71.21199989318848L199.3710653967285,59.34333324432373L199.90684819618224,32.63883328437805L200.00562379608155,47.474666595458984L201.45732579460145,26.70449995994568L201.99310859405517,26.70449995994568L204.8546077911377,23.737333297729492L205.68971059028624,56.376166582107544L205.77052699020385,56.376166582107544L205.82141139015198,65.2776665687561L207.32100458862305,65.2776665687561L207.46168498847962,17.80299997329712L207.82386218811035,62.31049990653992L208.4464477874756,41.54033327102661L210.0597825858307,38.573166608810425L210.07774178581238,44.5074999332428L210.14359218574523,38.573166608810425L210.4129801854706,50.44183325767517L210.94576978492736,20.770166635513306L213.13080578269958,44.5074999332428L213.3433229824829,44.5074999332428L214.55257578125,35.60599994659424L215.92645457984923,32.63883328437805L217.1476801786041,91.98216652870178L220.03911137565612,47.474666595458984L220.51203697517394,35.60599994659424L221.09271777458193,50.44183325767517L223.05625697257997,53.40899991989137L224.1577545714569,23.737333297729492L225.36401417022705,44.5074999332428L226.28891296928404,41.54033327102661L226.4146273691559,68.24483323097229L227.62986656791688,53.40899991989137L229.8388481656647,91.98216652870178L230.40456296508788,53.40899991989137L230.53925696495054,41.54033327102661L231.79340776367187,91.98216652870178L29.937986369476317,23.737333297729492L30.228326769180295,32.63883328437805L30.862885168533325,35.60599994659424L32.601934366760254,35.60599994659424L32.643839166717534,35.60599994659424L33.45200316589355,35.60599994659424L34.24220796508789,47.474666595458984L34.478670764846804,29.671666622161865L34.828875164489745,91.98216652870178L36.46615556282043,26.70449995994568L36.819353162460324,91.98216652870178L37.0468363622284,59.34333324432373L38.0645243611908,26.70449995994568L39.35758675987243,35.60599994659424L39.734729959487915,44.5074999332428L40.788336358413694,29.671666622161865L40.94098955825806,38.573166608810425L41.00683995819092,44.5074999332428L41.105615558090214,41.54033327102661L41.180445558013915,26.70449995994568L41.95867755722046,26.70449995994568L41.964663957214356,53.40899991989137L42.26997035690308,91.98216652870178L42.27894995689392,91.98216652870178L42.73990275642395,41.54033327102661L43.233780755920414,32.63883328437805L44.089835955047604,44.5074999332428L44.598679954528805,29.671666622161865L46.43949795265198,50.44183325767517L46.82861395225525,26.70449995994568L47.61582555145264,32.63883328437805L51.50698554748536,89.0149998664856L53.69501474525452,20.770166635513306L54.48521954444885,38.573166608810425L54.916240344009395,62.31049990653992L55.056920743865966,29.671666622161865L55.40712514350891,32.63883328437805L55.754336343154904,35.60599994659424L55.775288743133544,35.60599994659424L56.62835074226379,91.98216652870178L58.73257034011841,62.31049990653992L59.432979139404296,29.671666622161865L59.65148273918152,26.70449995994568L30.048734769363403,56.376166582107544L30.252272369155882,29.671666622161865L30.4827487689209,44.5074999332428L30.524653568878175,62.31049990653992L30.641388368759156,47.474666595458984L30.7371707686615,53.40899991989137L32.50914516685486,68.24483323097229L33.640574765701295,38.573166608810425L33.80819396553039,50.44183325767517L34.014724765319826,44.5074999332428L34.20928276512146,91.98216652870178L34.88275276443481,41.54033327102661L34.930643964385986,56.376166582107544L35.36166476394653,26.70449995994568L35.43948796386719,50.44183325767517L35.55023636375427,50.44183325767517L36.69663196258545,47.474666595458984L36.75350276252747,56.376166582107544L37.058809162216185,35.60599994659424L37.84901396141053,35.60599994659424L38.18724556106567,44.5074999332428L30.88982396850586,35.60599994659424L30.991592768402096,65.2776665687561L31.22805556816101,23.737333297729492L32.47921316688537,35.60599994659424L33.96084716537476,35.60599994659424L35.89744756340027,56.376166582107544L36.472141962814334,26.70449995994568L36.726563962554934,32.63883328437805L37.93282356132507,56.376166582107544L38.172279561080934,41.54033327102661L39.18697436004639,41.54033327102661L39.27976355995179,35.60599994659424L39.37853915985108,32.63883328437805L39.719763959503176,23.737333297729492L40.70153355850219,23.737333297729492L42.994324756164545,26.70449995994568L43.24874675590515,50.44183325767517L43.67677435546875,38.573166608810425L44.82915635429382,35.60599994659424L44.99976875411987,35.60599994659424L45.64629995346069,38.573166608810425L46.13419155296325,89.0149998664856L30.228326769180295,44.5074999332428L31.835675167541503,38.573166608810425L32.25771636711121,17.80299997329712L33.85009876548767,41.54033327102661L33.897989965438846,23.737333297729492L35.04139236427307,44.5074999332428L35.72384196357727,23.737333297729492L35.90942036338806,23.737333297729492L36.514046762771606,32.63883328437805L39.07921916015625,56.376166582107544L39.695818359527586,41.54033327102661L40.66561515853882,91.98216652870178L40.73445875846863,53.40899991989137L40.98888075820923,41.54033327102661L40.99786035820008,53.40899991989137L42.15024235702515,97.91649985313416L43.97310115516663,47.474666595458984L44.14969995498657,26.70449995994568L45.16140155395507,56.376166582107544L45.45174195365906,41.54033327102661L46.19405555290222,32.63883328437805L47.48113155158996,20.770166635513306L49.381813549652094,38.573166608810425L50.12412714889526,41.54033327102661L50.94127074806214,29.671666622161865L51.73147554725647,23.737333297729492L51.89909474708557,41.54033327102661L51.99487714698792,35.60599994659424L52.20739434677124,32.63883328437805L53.611205145339966,62.31049990653992L53.68004874526977,23.737333297729492L54.664811544265746,56.376166582107544L55.365220343551634,29.671666622161865L55.55977834335327,29.671666622161865L57.43352154144287,44.5074999332428L58.00222954086304,38.573166608810425L58.54100554031372,29.671666622161865L59.13964553970337,32.63883328437805L59.37910153945923,29.671666622161865L59.708353539123536,35.60599994659424L60.38481673843384,32.63883328437805L60.959511137847905,80.11349987983702L61.16903513763428,53.40899991989137L62.908084335861204,65.2776665687561L64.25801753448486,50.44183325767517L64.57529673416137,47.474666595458984L64.58128313415527,35.60599994659424L65.3894471333313,50.44183325767517L67.43080953125,32.63883328437805L67.49965313117981,26.70449995994568L68.30482393035888,44.5074999332428L68.48142273017883,23.737333297729492L68.72087872993468,44.5074999332428L68.9453687297058,44.5074999332428L69.43026712921143,53.40899991989137L69.7325803289032,32.63883328437805L70.01992752861022,59.34333324432373L70.22346512840271,20.770166635513306L71.49258192710877,32.63883328437805L71.55244592704773,32.63883328437805L73.24659712532043,26.70449995994568L73.34237952522278,91.98216652870178L73.77340032478332,56.376166582107544L74.35707432418823,50.44183325767517L74.44986352409363,20.770166635513306L74.61448952392578,56.376166582107544L74.71925152381897,20.770166635513306L74.74918352378846,62.31049990653992L75.33285752319337,38.573166608810425L76.26374272224427,26.70449995994568L77.550818720932,91.98216652870178L78.53558151992797,29.671666622161865L78.70918711975098,32.63883328437805L80.34946071807862,50.44183325767517L80.39136551803588,38.573166608810425L80.43626351799011,50.44183325767517L80.47517511795044,47.474666595458984L80.98102591743469,94.94933319091797L82.00170711639404,32.63883328437805L82.52851031585693,35.60599994659424L83.01939511535645,91.98216652870178L83.06129991531373,32.63883328437805L84.32443031402589,41.54033327102661L84.49504271385193,91.98216652870178L84.86320631347657,35.60599994659424L85.39000951293944,83.08066654205322L85.68932951263427,29.671666622161865L86.99735791130067,29.671666622161865L89.19436670906066,50.44183325767517L91.4362735067749,65.2776665687561L93.39981270477294,50.44183325767517L93.40280590476989,89.0149998664856L93.5764115045929,47.474666595458984L94.17505150398254,32.63883328437805L95.13586870300293,35.60599994659424L96.24035950187682,20.770166635513306L96.33913510177612,41.54033327102661L96.91981590118408,50.44183325767517L97.42267350067138,23.737333297729492L97.58729950050353,74.17916655540466L97.87464670021058,29.671666622161865L99.24253909881593,47.474666595458984L99.62866189842224,32.63883328437805L100.75111189727784,23.737333297729492L101.4006362966156,29.671666622161865L103.64254309432984,32.63883328437805L103.75927789421083,17.80299997329712L104.35492469360352,29.671666622161865L105.61206869232177,91.98216652870178L106.41125309150695,91.98216652870178L106.8662194910431,44.5074999332428L107.58159429031373,50.44183325767517L108.51547268936156,35.60599994659424L109.01533708885192,35.60599994659424L110.92200548690796,38.573166608810425L112.14921748565675,38.573166608810425L112.18513588562013,41.54033327102661L112.92445628486634,38.573166608810425L113.26268788452148,44.5074999332428L113.74459308403016,20.770166635513306L115.64228188209535,29.671666622161865L115.75602348197937,35.60599994659424L115.97153388175965,44.5074999332428L116.08826868164063,41.54033327102661L116.66894948104859,44.5074999332428L116.76173868095398,29.671666622161865L117.08500428062439,83.08066654205322L118.52174027915954,47.474666595458984L119.09044827857971,65.2776665687561L119.43765947822571,26.70449995994568L120.18296627746582,38.573166608810425L121.56283147605896,41.54033327102661L122.33208387527466,17.80299997329712L122.601471875,32.63883328437805L123.51140467407227,91.98216652870178L124.01426227355958,47.474666595458984L125.53780107200623,80.11349987983702L129.16855266830444,91.98216652870178L129.1715458683014,29.671666622161865L129.58760066787718,44.5074999332428L129.67739666778564,32.63883328437805L129.8001178676605,68.24483323097229L131.09318026634216,32.63883328437805L132.20066426521302,26.70449995994568L133.44882866394045,20.770166635513306L133.48474706390382,29.671666622161865L133.79903306358338,29.671666622161865L134.78379586257935,23.737333297729492L136.40311706092834,41.54033327102661L136.4749538608551,41.54033327102661L136.5737294607544,50.44183325767517L138.16311865913391,26.70449995994568L139.84829025741578,44.5074999332428L140.02189585723877,32.63883328437805L140.69536585655214,23.737333297729492L141.43468625579834,23.737333297729492L145.61618665153503,23.737333297729492L146.3585002507782,91.98216652870178L146.51713985061645,50.44183325767517L146.84339865028383,50.44183325767517L147.7922430493164,56.376166582107544L148.1753726489258,50.44183325767517L148.45972664863586,29.671666622161865L148.9027202481842,68.24483323097229L148.99850264808654,89.0149998664856L149.1810878479004,35.60599994659424L149.88149664718628,26.70449995994568L150.45619104660034,29.671666622161865L150.76748384628297,41.54033327102661L152.09646464492798,41.54033327102661L152.97646544403077,32.63883328437805L153.49129584350587,38.573166608810425L153.75469744323732,17.80299997329712L153.7906158432007,41.54033327102661L153.81456144317627,50.44183325767517L154.04204464294432,26.70449995994568L154.1707522428131,68.24483323097229L155.30816824165345,20.770166635513306L155.74517544120786,77.14633321762085L157.63687783927915,53.40899991989137L158.30436143859865,50.44183325767517L159.99551943687436,91.98216652870178L160.02844463684082,44.5074999332428L160.56123423629762,29.671666622161865L160.7228670361328,38.573166608810425L161.14790143569945,38.573166608810425L163.54246143325804,17.80299997329712L164.26082943252564,91.98216652870178L165.1288574316406,83.08066654205322L165.4640958312988,91.98216652870178L167.0864102296448,35.60599994659424L167.52641062919616,38.573166608810425L168.63090142807008,32.63883328437805L168.66981302803038,47.474666595458984L168.92423502777098,74.17916655540466L170.13049462654112,35.60599994659424L170.44777382621766,20.770166635513306L172.33947622428894,41.54033327102661L173.10872862350462,26.70449995994568L174.11743702247617,29.671666622161865L174.5634238220215,35.60599994659424L175.50628182106018,41.54033327102661L175.52124782104494,44.5074999332428L175.56614582099914,38.573166608810425L176.55390181999206,23.737333297729492L176.6496842198944,29.671666622161865L178.176216218338,38.573166608810425L178.23308701828003,89.0149998664856L178.54138661796568,32.63883328437805L179.37648941711427,26.70449995994568L182.2888730141449,44.5074999332428L183.24370381317138,32.63883328437805L183.6777178127289,62.31049990653992L183.8154050125885,29.671666622161865L185.38982821098327,44.5074999332428L185.5095562108612,29.671666622161865L185.59935221076967,44.5074999332428L185.62928421073914,47.474666595458984L185.8567674105072,38.573166608810425L185.95853621040345,17.80299997329712L186.3117338100433,32.63883328437805L187.70955820861818,26.70449995994568L188.4249330078888,35.60599994659424L189.1223486071777,38.573166608810425L191.01105780525208,35.60599994659424L191.11881300514221,20.770166635513306L191.4091534048462,26.70449995994568L192.03772540420533,26.70449995994568L192.04071860420225,56.376166582107544L192.9356854032898,41.54033327102661L193.6989514025116,23.737333297729492L194.1209926020813,50.44183325767517L195.00099340118408,41.54033327102661L195.467932600708,35.60599994659424L196.15337540000914,44.5074999332428L196.81487259933473,47.474666595458984L197.19201579895022,62.31049990653992L198.11392139801026,71.21199989318848L198.2905201978302,38.573166608810425L198.64671099746704,35.60599994659424L199.01786779708863,38.573166608810425L202.5588233934784,17.80299997329712L202.79827939323425,20.770166635513306L204.35773659164428,53.40899991989137L205.5071253904724,38.573166608810425L29.997850369415286,26.70449995994568L30.300163569107056,44.5074999332428L32.389417166976926,32.63883328437805L32.685743966674806,91.98216652870178L33.092819166259765,38.573166608810425L33.45798956588745,29.671666622161865L33.63159516571045,44.5074999332428L33.83812596549988,35.60599994659424L33.85009876548767,32.63883328437805L34.15241196517944,35.60599994659424L34.409827164917,35.60599994659424L36.139896763153075,29.671666622161865L36.8612579624176,44.5074999332428L37.4688775617981,41.54033327102661L37.621530761642454,23.737333297729492L37.82806156143188,38.573166608810425L39.4174507598114,91.98216652870178L39.47432155975342,17.80299997329712L40.07894795913696,26.70449995994568L40.39323395881652,26.70449995994568L40.929016758270265,53.40899991989137L40.97092155822754,29.671666622161865L41.07867675811767,17.80299997329712L41.201397957992555,38.573166608810425L41.48275875770569,35.60599994659424L41.629425557556154,32.63883328437805L42.16820155700684,32.63883328437805L42.428609956741326,91.98216652870178L42.4824875566864,26.70449995994568L42.88656955627441,50.44183325767517L30.114585169296266,32.63883328437805L30.84193276855469,77.14633321762085L33.206560766143795,47.474666595458984L33.407105165939335,26.70449995994568L33.58969036575317,41.54033327102661L36.09499876319885,35.60599994659424L36.52302636276245,26.70449995994568L38.094456361160276,41.54033327102661L39.27677035995484,53.40899991989137L39.6838455595398,35.60599994659424L39.72874355949401,44.5074999332428L41.44684035774231,47.474666595458984L41.69527595748902,23.737333297729492L42.473507956695556,20.770166635513306L42.994324756164545,32.63883328437805L43.212828355941774,20.770166635513306L43.64983555549621,38.573166608810425L43.706706355438236,50.44183325767517L43.90425755523682,35.60599994659424L44.386162754745484,23.737333297729492L44.658543954467774,38.573166608810425L44.80221755432129,26.70449995994568L45.379905153732295,32.63883328437805L45.93664035316467,53.40899991989137L46.28983795280457,71.21199989318848L46.63106275245667,23.737333297729492L49.06453434997559,38.573166608810425L49.45365034957886,23.737333297729492L49.92956914909363,38.573166608810425L50.72276714828491,35.60599994659424L51.06399194793701,29.671666622161865L51.83324434715271,65.2776665687561L53.099367945861815,47.474666595458984L53.24902794570923,32.63883328437805L53.763858345184325,32.63883328437805L53.87460674507142,38.573166608810425L54.61392714431763,29.671666622161865L55.96386034294128,44.5074999332428L56.04766994285583,29.671666622161865L56.577466342315674,26.70449995994568L58.33148154052734,20.770166635513306L58.400325140457156,59.34333324432373L58.906175939941406,44.5074999332428L58.909169139938356,17.80299997329712L59.097740739746094,23.737333297729492L60.22617713859558,65.2776665687561L60.4386943383789,91.98216652870178L60.84277633796692,38.573166608810425L61.857471136932375,47.474666595458984L62.360328736419675,35.60599994659424L64.33584073440552,47.474666595458984L66.32931193237305,26.70449995994568L66.91897233177185,32.63883328437805L67.03870033164978,44.5074999332428L68.84659312980652,26.70449995994568L69.24768192939759,41.54033327102661L69.85530152877807,53.40899991989137L70.44496192817688,29.671666622161865L71.3459151272583,47.474666595458984L71.41475872718812,32.63883328437805L71.98945312660217,41.54033327102661L73.05802552551269,91.98216652870178L73.28850192527771,47.474666595458984L73.89312832466126,38.573166608810425L74.14755032440185,26.70449995994568L74.4797955240631,91.98216652870178L74.63244872390747,38.573166608810425L75.37476232315063,38.573166608810425L76.55108992195129,35.60599994659424L76.9791175215149,35.60599994659424L77.60469632087708,41.54033327102661L78.08360832038879,62.31049990653992L78.59544551986694,32.63883328437805L79.06537791938781,38.573166608810425L80.40034511802673,38.573166608810425L81.09177431732178,41.54033327102661L82.04660511634827,17.80299997329712L82.3159931160736,23.737333297729492L82.98946311538697,23.737333297729492L83.90837551445009,20.770166635513306L86.05449991226196,29.671666622161865L87.27572551101684,44.5074999332428L87.39246031089783,29.671666622161865L87.42239231086731,32.63883328437805L89.10457070915223,41.54033327102661L89.65831270858764,91.98216652870178L91.32253190689086,91.98216652870178L91.68470910652161,32.63883328437805L91.92715830627442,38.573166608810425L92.28933550590514,47.474666595458984L93.07056070510865,44.5074999332428L93.63627550453187,26.70449995994568L95.63872630249024,23.737333297729492L96.33614190177919,23.737333297729492L97.72199350036621,26.70449995994568L97.9015855001831,35.60599994659424L98.20988509986879,59.34333324432373L98.52417109954834,56.376166582107544L99.04199469902039,35.60599994659424L100.62839069740295,23.737333297729492L101.2330170967865,29.671666622161865L101.27791509674073,26.70449995994568L102.13097709587097,91.98216652870178L103.63356349433899,65.2776665687561L105.42948349250793,44.5074999332428L105.70485789222718,41.54033327102661L106.08200109184266,41.54033327102661L106.94703589096069,35.60599994659424L108.35084668952942,44.5074999332428L108.36880588951111,44.5074999332428L108.47057468940734,47.474666595458984L108.85969068901062,56.376166582107544L109.95220868789673,91.98216652870178L110.88309388694763,89.0149998664856L111.40091748641969,26.70449995994568L112.25697268554687,23.737333297729492L113.3015994844818,29.671666622161865L113.39139548439026,32.63883328437805L114.16663428359985,29.671666622161865L115.49860828224182,35.60599994659424L115.5105810822296,26.70449995994568L115.67520708206177,47.474666595458984L116.15112588157653,17.80299997329712L116.55221468116761,26.70449995994568L116.7377930809784,53.40899991989137L117.25561668045043,20.770166635513306L118.60554987907409,35.60599994659424L119.84772787780761,26.70449995994568L120.84446347679138,41.54033327102661L121.0060962766266,29.671666622161865L121.17072227645875,65.2776665687561L121.18568827644349,47.474666595458984L122.00881827560424,41.54033327102661L122.14949867546082,44.5074999332428L122.1554850754547,35.60599994659424L122.79303667480468,35.60599994659424L123.12827507446289,29.671666622161865L123.76283347381592,32.63883328437805L124.09507867347718,35.60599994659424L124.77752827278138,59.34333324432373L126.56147547096252,20.770166635513306L127.49834707000733,32.63883328437805L129.1655594683075,91.98216652870178L130.3329074671173,29.671666622161865L131.01236386642455,41.54033327102661L131.05127546638488,91.98216652870178L131.67984746574402,35.60599994659424L131.92528986549377,29.671666622161865L132.37726306503296,35.60599994659424L132.4610726649475,35.60599994659424L133.0866514643097,29.671666622161865L133.41291026397704,38.573166608810425L133.58052946380616,53.40899991989137L133.73018946365357,50.44183325767517L135.10706146224976,41.54033327102661L135.32855826202393,65.2776665687561L136.133729061203,26.70449995994568L136.27141626106263,35.60599994659424L136.51386546081542,32.63883328437805L137.4297846598816,29.671666622161865L139.98897065727235,38.573166608810425L140.05182785720825,32.63883328437805L140.07278025718688,47.474666595458984L140.1416238571167,44.5074999332428L140.26135185699462,32.63883328437805L141.46461825576782,38.573166608810425L142.09019705513,26.70449995994568L143.30244305389405,29.671666622161865L143.61373585357666,38.573166608810425L148.92067944816588,91.98216652870178L152.26707704475402,29.671666622161865L152.78490064422607,41.54033327102661L153.4613638435364,38.573166608810425L153.5691190434265,32.63883328437805L155.65837264129638,35.60599994659424L156.12231864082335,20.770166635513306L157.12803383979798,38.573166608810425L158.10082383880615,20.770166635513306L158.14572183876038,59.34333324432373L158.45402143844603,20.770166635513306L158.7922530381012,50.44183325767517L159.1095322377777,44.5074999332428L161.73456863510134,26.70449995994568L162.4230046343994,32.63883328437805L162.57266463424682,32.63883328437805L163.25810743354796,20.770166635513306L163.62627103317263,50.44183325767517L165.98191943077086,44.5074999332428L166.8379746298981,38.573166608810425L167.46355342926026,29.671666622161865L168.78355462791444,71.21199989318848L168.79552742790224,26.70449995994568L170.0047802266693,50.44183325767517L170.08858982658387,32.63883328437805L171.21103982543943,44.5074999332428L171.2200194254303,74.17916655540466L172.3664150242615,29.671666622161865L172.85430662376402,35.60599994659424L173.01893262359619,41.54033327102661L174.94056702163695,26.70449995994568L176.41621462013245,47.474666595458984L177.5656034189606,47.474666595458984L177.96968541854858,94.94933319091797L179.23580901725768,38.573166608810425L179.5919998168945,44.5074999332428L180.34329301612854,20.770166635513306L181.1095522153473,29.671666622161865L181.89377061454772,91.98216652870178L184.5846574118042,47.474666595458984L184.8570386115265,127.58816647529602L186.44942100990295,53.40899991989137L186.92533980941775,65.2776665687561L188.065749008255,26.70449995994568L188.48180380783083,41.54033327102661L188.89187220741272,26.70449995994568L190.51119340576173,56.376166582107544L191.79228300445556,91.98216652870178L193.32480140289306,38.573166608810425L194.99800020118712,20.770166635513306L195.6026266005707,47.474666595458984L195.82412340034483,38.573166608810425L197.17106339897157,56.376166582107544L197.43446499870302,35.60599994659424L197.47337659866332,41.54033327102661L198.4072549977112,26.70449995994568L198.96399019714354,29.671666622161865L199.06575899703978,14.835833311080933L200.3947397956848,20.770166635513306L200.58331139549256,44.5074999332428L202.08589779396058,20.770166635513306L202.11882299392698,29.671666622161865L202.72644259330747,38.573166608810425L203.07365379295348,44.5074999332428L203.91174979209902,50.44183325767517L204.91746499107362,29.671666622161865L205.11800939086913,47.474666595458984L205.86930259010316,56.376166582107544L206.77324898918152,26.70449995994568L207.2312085887146,35.60599994659424L209.8053605860901,32.63883328437805L211.430668184433,50.44183325767517L211.66114458419798,38.573166608810425L213.72944578208921,53.40899991989137L214.38196338142396,35.60599994659424L214.48672538131714,23.737333297729492L215.9533933798218,26.70449995994568L216.13897177963256,91.98216652870178L216.30359777946472,35.60599994659424L218.1084973776245,29.671666622161865L219.97326097572326,38.573166608810425L220.18278497550963,17.80299997329712L220.26958777542114,83.08066654205322L222.188228973465,91.98216652870178L222.28999777336122,35.60599994659424L223.09516857254027,29.671666622161865L224.4600677711487,29.671666622161865L224.77136057083132,23.737333297729492L225.20537457038878,35.60599994659424L225.7022457698822,17.80299997329712L226.75884536880494,77.14633321762085L226.82768896873475,32.63883328437805L227.276668968277,91.98216652870178L228.4440169670868,29.671666622161865L229.90769176559448,38.573166608810425L230.63204616485595,47.474666595458984L230.94333896453858,23.737333297729492L231.45816936401366,29.671666622161865L231.67068656379698,44.5074999332428L232.55368056289672,44.5074999332428L232.87993936256407,29.671666622161865L234.2448385611725,38.573166608810425L234.59204976081847,38.573166608810425L235.88810535949708,29.671666622161865L236.07667695930482,41.54033327102661L237.22007935813903,20.770166635513306L237.91749495742798,80.11349987983702L238.204842157135,32.63883328437805L240.64430015464782,32.63883328437805L241.03640935424804,32.63883328437805L242.67368975257872,44.5074999332428L243.1615813520813,29.671666622161865L243.87096975135802,44.5074999332428L244.25110615097046,26.70449995994568L245.8105633493805,56.376166582107544L246.3313801488495,50.44183325767517L246.588795348587,41.54033327102661L246.6726049485016,26.70449995994568L247.66335414749148,23.737333297729492L250.78526174430846,29.671666622161865L251.0785953440094,26.70449995994568L251.11451374397276,29.671666622161865L251.4078473436737,29.671666622161865L251.82689534324646,20.770166635513306L252.34771214271544,32.63883328437805L254.2693465407562,44.5074999332428L254.53574134048463,23.737333297729492L255.2600957397461,32.63883328437805L255.4217285395813,29.671666622161865L255.92757933906555,17.80299997329712L255.93356573905945,23.737333297729492L256.5441785384369,20.770166635513306L257.2236349377441,23.737333297729492L257.77737693717955,17.80299997329712L257.78635653717043,26.70449995994568L258.0707105368805,35.60599994659424L258.8728881360626,35.60599994659424L259.02254813591003,20.770166635513306L259.1213237358093,29.671666622161865L259.893569335022,20.770166635513306L260.354522134552,29.671666622161865L260.74064493415835,26.70449995994568L260.7885361341095,29.671666622161865L261.36323053352356,77.14633321762085L261.8301697330475,35.60599994659424L262.74608893211365,44.5074999332428L263.12921853172304,35.60599994659424L263.709899331131,38.573166608810425L264.5599681302643,41.54033327102661L265.0807849297333,26.70449995994568L266.8767049279022,41.54033327102661L268.1847333265686,53.40899991989137L268.5259581262207,32.63883328437805L268.57983572616575,38.573166608810425L269.3071833254242,47.474666595458984L30.21036756919861,26.70449995994568L31.94043716743469,44.5074999332428L31.94642356742859,32.63883328437805L31.985335167388914,20.770166635513306L32.425335566940305,35.60599994659424L32.955131966400145,94.94933319091797L33.33826156600952,23.737333297729492L33.502887565841675,29.671666622161865L33.98778596534729,50.44183325767517L34.17635756515503,53.40899991989137L34.89771876441956,32.63883328437805L35.43948796386719,29.671666622161865L36.271597563018794,29.671666622161865L36.69663196258545,94.94933319091797L37.16357116210938,47.474666595458984L37.444931961822505,74.17916655540466L38.720035160522464,35.60599994659424L40.07296155914307,50.44183325767517L41.26126195793152,23.737333297729492L41.72221475746154,26.70449995994568L42.22507235694885,23.737333297729492L42.647113556518555,41.54033327102661L30.743157168655394,35.60599994659424L30.868871568527222,41.54033327102661L32.65880516670227,29.671666622161865L33.43105076591492,38.573166608810425L34.35894276496887,20.770166635513306L34.90370516441345,47.474666595458984L34.95458956436157,56.376166582107544L36.52302636276245,44.5074999332428L36.88819676239014,23.737333297729492L37.60057836166382,91.98216652870178L37.71431996154785,41.54033327102661" fill="none"></path></g></g></g></g></g></g><g transform="translate(30, 178)" clip-path="url(#clip_1)"><clipPath id="clip_1"><rect width="299" height="21"></rect></clipPath><g><g><line x1="0" y1="0" x2="0" y2="5" style="visibility: inherit;" fill="rgb(0, 0, 0)" stroke="rgb(204, 204, 204)" stroke-width="1px"></line><line x1="29.931999969482423" y1="0" x2="29.931999969482423" y2="5" style="visibility: inherit;" fill="rgb(0, 0, 0)" stroke="rgb(204, 204, 204)" stroke-width="1px"></line><line x1="59.863999938964845" y1="0" x2="59.863999938964845" y2="5" style="visibility: inherit;" fill="rgb(0, 0, 0)" stroke="rgb(204, 204, 204)" stroke-width="1px"></line><line x1="89.79599990844726" y1="0" x2="89.79599990844726" y2="5" style="visibility: inherit;" fill="rgb(0, 0, 0)" stroke="rgb(204, 204, 204)" stroke-width="1px"></line><line x1="119.72799987792969" y1="0" x2="119.72799987792969" y2="5" style="visibility: inherit;" fill="rgb(0, 0, 0)" stroke="rgb(204, 204, 204)" stroke-width="1px"></line><line x1="149.6599998474121" y1="0" x2="149.6599998474121" y2="5" style="visibility: inherit;" fill="rgb(0, 0, 0)" stroke="rgb(204, 204, 204)" stroke-width="1px"></line><line x1="179.5919998168945" y1="0" x2="179.5919998168945" y2="5" style="visibility: inherit;" fill="rgb(0, 0, 0)" stroke="rgb(204, 204, 204)" stroke-width="1px"></line><line x1="209.52399978637695" y1="0" x2="209.52399978637695" y2="5" style="visibility: inherit;" fill="rgb(0, 0, 0)" stroke="rgb(204, 204, 204)" stroke-width="1px"></line><line x1="239.45599975585938" y1="0" x2="239.45599975585938" y2="5" style="visibility: inherit;" fill="rgb(0, 0, 0)" stroke="rgb(204, 204, 204)" stroke-width="1px"></line><line x1="269.3879997253418" y1="0" x2="269.3879997253418" y2="5" style="visibility: inherit;" fill="rgb(0, 0, 0)" stroke="rgb(204, 204, 204)" stroke-width="1px"></line><line x1="299.3199996948242" y1="0" x2="299.3199996948242" y2="5" style="visibility: inherit;" fill="rgb(0, 0, 0)" stroke="rgb(204, 204, 204)" stroke-width="1px"></line></g><g transform="translate(0, 8)"><text style="text-anchor: middle; visibility: hidden; font-family: &quot;Helvetica Neue&quot;, sans-serif; font-size: 12px; font-weight: 200;" x="0" y="0" dx="0em" dy="0.95em" fill="rgb(50, 49, 63)" stroke="none" stroke-width="1px">-10k</text><text style="text-anchor: middle; visibility: inherit; font-family: &quot;Helvetica Neue&quot;, sans-serif; font-size: 12px; font-weight: 200;" x="29.931999969482423" y="0" dx="0em" dy="0.95em" fill="rgb(50, 49, 63)" stroke="none" stroke-width="1px">0</text><text style="text-anchor: middle; visibility: inherit; font-family: &quot;Helvetica Neue&quot;, sans-serif; font-size: 12px; font-weight: 200;" x="59.863999938964845" y="0" dx="0em" dy="0.95em" fill="rgb(50, 49, 63)" stroke="none" stroke-width="1px">10k</text><text style="text-anchor: middle; visibility: inherit; font-family: &quot;Helvetica Neue&quot;, sans-serif; font-size: 12px; font-weight: 200;" x="89.79599990844726" y="0" dx="0em" dy="0.95em" fill="rgb(50, 49, 63)" stroke="none" stroke-width="1px">20k</text><text style="text-anchor: middle; visibility: inherit; font-family: &quot;Helvetica Neue&quot;, sans-serif; font-size: 12px; font-weight: 200;" x="119.72799987792969" y="0" dx="0em" dy="0.95em" fill="rgb(50, 49, 63)" stroke="none" stroke-width="1px">30k</text><text style="text-anchor: middle; visibility: inherit; font-family: &quot;Helvetica Neue&quot;, sans-serif; font-size: 12px; font-weight: 200;" x="149.6599998474121" y="0" dx="0em" dy="0.95em" fill="rgb(50, 49, 63)" stroke="none" stroke-width="1px">40k</text><text style="text-anchor: middle; visibility: inherit; font-family: &quot;Helvetica Neue&quot;, sans-serif; font-size: 12px; font-weight: 200;" x="179.5919998168945" y="0" dx="0em" dy="0.95em" fill="rgb(50, 49, 63)" stroke="none" stroke-width="1px">50k</text><text style="text-anchor: middle; visibility: inherit; font-family: &quot;Helvetica Neue&quot;, sans-serif; font-size: 12px; font-weight: 200;" x="209.52399978637695" y="0" dx="0em" dy="0.95em" fill="rgb(50, 49, 63)" stroke="none" stroke-width="1px">60k</text><text style="text-anchor: middle; visibility: inherit; font-family: &quot;Helvetica Neue&quot;, sans-serif; font-size: 12px; font-weight: 200;" x="239.45599975585938" y="0" dx="0em" dy="0.95em" fill="rgb(50, 49, 63)" stroke="none" stroke-width="1px">70k</text><text style="text-anchor: middle; visibility: inherit; font-family: &quot;Helvetica Neue&quot;, sans-serif; font-size: 12px; font-weight: 200;" x="269.3879997253418" y="0" dx="0em" dy="0.95em" fill="rgb(50, 49, 63)" stroke="none" stroke-width="1px">80k</text><text style="text-anchor: middle; visibility: hidden; font-family: &quot;Helvetica Neue&quot;, sans-serif; font-size: 12px; font-weight: 200;" x="299.3199996948242" y="0" dx="0em" dy="0.95em" fill="rgb(50, 49, 63)" stroke="none" stroke-width="1px">90k</text></g><line x1="0" y1="0" x2="299.3199996948242" y2="0" fill="rgb(0, 0, 0)" stroke="rgb(204, 204, 204)" stroke-width="1px"></line></g></g></g></g></svg>