<svg viewBox="0 0 330 200" xmlns="http://www.w3.org/2000/svg"><g><g><g><g><g><line x1="30.68000030517578" y1="178.0299997329712" x2="25.68000030517578" y2="178.0299997329712" style="visibility: inherit;" fill="rgb(0, 0, 0)" stroke="rgb(204, 204, 204)" stroke-width="1px"></line><line x1="30.68000030517578" y1="161.84545430270109" x2="25.68000030517578" y2="161.84545430270109" style="visibility: inherit;" fill="rgb(0, 0, 0)" stroke="rgb(204, 204, 204)" stroke-width="1px"></line><line x1="30.68000030517578" y1="145.66090887243098" x2="25.68000030517578" y2="145.66090887243098" style="visibility: inherit;" fill="rgb(0, 0, 0)" stroke="rgb(204, 204, 204)" stroke-width="1px"></line><line x1="30.68000030517578" y1="129.47636344216087" x2="25.68000030517578" y2="129.47636344216087" style="visibility: inherit;" fill="rgb(0, 0, 0)" stroke="rgb(204, 204, 204)" stroke-width="1px"></line><line x1="30.68000030517578" y1="113.29181801189075" x2="25.68000030517578" y2="113.29181801189075" style="visibility: inherit;" fill="rgb(0, 0, 0)" stroke="rgb(204, 204, 204)" stroke-width="1px"></line><line x1="30.68000030517578" y1="97.10727258162065" x2="25.68000030517578" y2="97.10727258162065" style="visibility: inherit;" fill="rgb(0, 0, 0)" stroke="rgb(204, 204, 204)" stroke-width="1px"></line><line x1="30.68000030517578" y1="80.92272715135054" x2="25.68000030517578" y2="80.92272715135054" style="visibility: inherit;" fill="rgb(0, 0, 0)" stroke="rgb(204, 204, 204)" stroke-width="1px"></line><line x1="30.68000030517578" y1="64.73818172108044" x2="25.68000030517578" y2="64.73818172108044" style="visibility: inherit;" fill="rgb(0, 0, 0)" stroke="rgb(204, 204, 204)" stroke-width="1px"></line><line x1="30.68000030517578" y1="48.55363629081032" x2="25.68000030517578" y2="48.55363629081032" style="visibility: inherit;" fill="rgb(0, 0, 0)" stroke="rgb(204, 204, 204)" stroke-width="1px"></line><line x1="30.68000030517578" y1="32.36909086054021" x2="25.68000030517578" y2="32.36909086054021" style="visibility: inherit;" fill="rgb(0, 0, 0)" stroke="rgb(204, 204, 204)" stroke-width="1px"></line><line x1="30.68000030517578" y1="16.184545430270106" x2="25.68000030517578" y2="16.184545430270106" style="visibility: inherit;" fill="rgb(0, 0, 0)" stroke="rgb(204, 204, 204)" stroke-width="1px"></line><line x1="30.68000030517578" y1="0" x2="25.68000030517578" y2="0" style="visibility: inherit;" fill="rgb(0, 0, 0)" stroke="rgb(204, 204, 204)" stroke-width="1px"></line></g><g transform="translate(20.68000030517578, 0)"><text style="text-anchor: end; visibility: hidden; font-family: &quot;Helvetica Neue&quot;, sans-serif; font-size: 12px; font-weight: 200;" x="0" y="178.0299997329712" dx="0em" dy="0.3em" fill="rgb(50, 49, 63)" stroke="none" stroke-width="1px">-5</text><text style="text-anchor: end; visibility: inherit; font-family: &quot;Helvetica Neue&quot;, sans-serif; font-size: 12px; font-weight: 200;" x="0" y="161.84545430270109" dx="0em" dy="0.3em" fill="rgb(50, 49, 63)" stroke="none" stroke-width="1px">0</text><text style="text-anchor: end; visibility: hidden; font-family: &quot;Helvetica Neue&quot;, sans-serif; font-size: 12px; font-weight: 200;" x="0" y="145.66090887243098" dx="0em" dy="0.3em" fill="rgb(50, 49, 63)" stroke="none" stroke-width="1px">5</text><text style="text-anchor: end; visibility: inherit; font-family: &quot;Helvetica Neue&quot;, sans-serif; font-size: 12px; font-weight: 200;" x="0" y="129.47636344216087" dx="0em" dy="0.3em" fill="rgb(50, 49, 63)" stroke="none" stroke-width="1px">10</text><text style="text-anchor: end; visibility: hidden; font-family: &quot;Helvetica Neue&quot;, sans-serif; font-size: 12px; font-weight: 200;" x="0" y="113.29181801189075" dx="0em" dy="0.3em" fill="rgb(50, 49, 63)" stroke="none" stroke-width="1px">15</text><text style="text-anchor: end; visibility: inherit; font-family: &quot;Helvetica Neue&quot;, sans-serif; font-size: 12px; font-weight: 200;" x="0" y="97.10727258162065" dx="0em" dy="0.3em" fill="rgb(50, 49, 63)" stroke="none" stroke-width="1px">20</text><text style="text-anchor: end; visibility: hidden; font-family: &quot;Helvetica Neue&quot;, sans-serif; font-size: 12px; font-weight: 200;" x="0" y="80.92272715135054" dx="0em" dy="0.3em" fill="rgb(50, 49, 63)" stroke="none" stroke-width="1px">25</text><text style="text-anchor: end; visibility: inherit; font-family: &quot;Helvetica Neue&quot;, sans-serif; font-size: 12px; font-weight: 200;" x="0" y="64.73818172108044" dx="0em" dy="0.3em" fill="rgb(50, 49, 63)" stroke="none" stroke-width="1px">30</text><text style="text-anchor: end; visibility: hidden; font-family: &quot;Helvetica Neue&quot;, sans-serif; font-size: 12px; font-weight: 200;" x="0" y="48.55363629081032" dx="0em" dy="0.3em" fill="rgb(50, 49, 63)" stroke="none" stroke-width="1px">35</text><text style="text-anchor: end; visibility: inherit; font-family: &quot;Helvetica Neue&quot;, sans-serif; font-size: 12px; font-weight: 200;" x="0" y="32.36909086054021" dx="0em" dy="0.3em" fill="rgb(50, 49, 63)" stroke="none" stroke-width="1px">40</text><text style="text-anchor: end; visibility: hidden; font-family: &quot;Helvetica Neue&quot;, sans-serif; font-size: 12px; font-weight: 200;" x="0" y="16.184545430270106" dx="0em" dy="0.3em" fill="rgb(50, 49, 63)" stroke="none" stroke-width="1px">45</text><text style="text-anchor: end; visibility: hidden; font-family: &quot;Helvetica Neue&quot;, sans-serif; font-size: 12px; font-weight: 200;" x="0" y="0" dx="0em" dy="0.3em" fill="rgb(50, 49, 63)" stroke="none" stroke-width="1px">50</text></g><line x1="30.68000030517578" y1="0" x2="30.68000030517578" y2="178.0299997329712" fill="rgb(0, 0, 0)" stroke="rgb(204, 204, 204)" stroke-width="1px"></line></g></g><g transform="translate(30, 0)" clip-path="url(#clip_0)"><clipPath id="clip_0"><rect width="299" height="178"></rect></clipPath><g><g><g><line x1="0" y1="0" x2="0" y2="178.0299997329712" fill="rgb(0, 0, 0)" stroke="rgb(60, 60, 60)" stroke-width="1px" opacity="0.25"></line><line x1="24.943333307902016" y1="0" x2="24.943333307902016" y2="178.0299997329712" fill="rgb(0, 0, 0)" stroke="rgb(60, 60, 60)" stroke-width="1px" opacity="0.25"></line><line x1="49.88666661580403" y1="0" x2="49.88666661580403" y2="178.0299997329712" fill="rgb(0, 0, 0)" stroke="rgb(60, 60, 60)" stroke-width="1px" opacity="0.25"></line><line x1="74.82999992370605" y1="0" x2="74.82999992370605" y2="178.0299997329712" fill="rgb(0, 0, 0)" stroke="rgb(60, 60, 60)" stroke-width="1px" opacity="0.25"></line><line x1="99.77333323160806" y1="0" x2="99.77333323160806" y2="178.0299997329712" fill="rgb(0, 0, 0)" stroke="rgb(60, 60, 60)" stroke-width="1px" opacity="0.25"></line><line x1="124.7166665395101" y1="0" x2="124.7166665395101" y2="178.0299997329712" fill="rgb(0, 0, 0)" stroke="rgb(60, 60, 60)" stroke-width="1px" opacity="0.25"></line><line x1="149.6599998474121" y1="0" x2="149.6599998474121" y2="178.0299997329712" fill="rgb(0, 0, 0)" stroke="rgb(60, 60, 60)" stroke-width="1px" opacity="0.25"></line><line x1="174.60333315531415" y1="0" x2="174.60333315531415" y2="178.0299997329712" fill="rgb(0, 0, 0)" stroke="rgb(60, 60, 60)" stroke-width="1px" opacity="0.25"></line><line x1="199.54666646321613" y1="0" x2="199.54666646321613" y2="178.0299997329712" fill="rgb(0, 0, 0)" stroke="rgb(60, 60, 60)" stroke-width="1px" opacity="0.25"></line><line x1="224.48999977111816" y1="0" x2="224.48999977111816" y2="178.0299997329712" fill="rgb(0, 0, 0)" stroke="rgb(60, 60, 60)" stroke-width="1px" opacity="0.25"></line><line x1="249.4333330790202" y1="0" x2="249.4333330790202" y2="178.0299997329712" fill="rgb(0, 0, 0)" stroke="rgb(60, 60, 60)" stroke-width="1px" opacity="0.25"></line><line x1="274.3766663869222" y1="0" x2="274.3766663869222" y2="178.0299997329712" fill="rgb(0, 0, 0)" stroke="rgb(60, 60, 60)" stroke-width="1px" opacity="0.25"></line><line x1="299.3199996948242" y1="0" x2="299.3199996948242" y2="178.0299997329712" fill="rgb(0, 0, 0)" stroke="rgb(60, 60, 60)" stroke-width="1px" opacity="0.25"></line></g><g><line x1="0" y1="178.0299997329712" x2="299.3199996948242" y2="178.0299997329712" fill="rgb(0, 0, 0)" stroke="rgb(60, 60, 60)" stroke-width="1px" opacity="0.25"></line><line x1="0" y1="161.84545430270109" x2="299.3199996948242" y2="161.84545430270109" fill="rgb(0, 0, 0)" stroke="rgb(60, 60, 60)" stroke-width="1px" opacity="0.25"></line><line x1="0" y1="145.66090887243098" x2="299.3199996948242" y2="145.66090887243098" fill="rgb(0, 0, 0)" stroke="rgb(60, 60, 60)" stroke-width="1px" opacity="0.25"></line><line x1="0" y1="129.47636344216087" x2="299.3199996948242" y2="129.47636344216087" fill="rgb(0, 0, 0)" stroke="rgb(60, 60, 60)" stroke-width="1px" opacity="0.25"></line><line x1="0" y1="113.29181801189075" x2="299.3199996948242" y2="113.29181801189075" fill="rgb(0, 0, 0)" stroke="rgb(60, 60, 60)" stroke-width="1px" opacity="0.25"></line><line x1="0" y1="97.10727258162065" x2="299.3199996948242" y2="97.10727258162065" fill="rgb(0, 0, 0)" stroke="rgb(60, 60, 60)" stroke-width="1px" opacity="0.25"></line><line x1="0" y1="80.92272715135054" x2="299.3199996948242" y2="80.92272715135054" fill="rgb(0, 0, 0)" stroke="rgb(60, 60, 60)" stroke-width="1px" opacity="0.25"></line><line x1="0" y1="64.73818172108044" x2="299.3199996948242" y2="64.73818172108044" fill="rgb(0, 0, 0)" stroke="rgb(60, 60, 60)" stroke-width="1px" opacity="0.25"></line><line x1="0" y1="48.55363629081032" x2="299.3199996948242" y2="48.55363629081032" fill="rgb(0, 0, 0)" stroke="rgb(60, 60, 60)" stroke-width="1px" opacity="0.25"></line><line x1="0" y1="32.36909086054021" x2="299.3199996948242" y2="32.36909086054021" fill="rgb(0, 0, 0)" stroke="rgb(60, 60, 60)" stroke-width="1px" opacity="0.25"></line><line x1="0" y1="16.184545430270106" x2="299.3199996948242" y2="16.184545430270106" fill="rgb(0, 0, 0)" stroke="rgb(60, 60, 60)" stroke-width="1px" opacity="0.25"></line><line x1="0" y1="0" x2="299.3199996948242" y2="0" fill="rgb(0, 0, 0)" stroke="rgb(60, 60, 60)" stroke-width="1px" opacity="0.25"></line></g></g></g><g><g><line x1="0" y1="161.84545430270109" x2="299.3199996948242" y2="161.84545430270109" fill="rgb(0, 0, 0)" stroke="rgb(153, 153, 153)" stroke-width="1.5px"></line></g></g><g><g><line x1="24.943333307902016" y1="0" x2="24.943333307902016" y2="178.0299997329712" fill="rgb(0, 0, 0)" stroke="rgb(153, 153, 153)" stroke-width="1.5px"></line></g></g><g><g><g><g><g><path style="fill: none;" stroke="rgb(255, 112, 67)" stroke-width="2px" d="M25.151610141023,155.37163613059303L25.228934474277498,157.3947043093768L25.534490307299297,159.66549512229736L25.611814640553792,160.66731459858585L25.67417297382355,158.3704380944252L25.75025014041265,158.47034206286548L26.20796030661265,126.55795345657032L26.605806472873684,106.67514445888627L26.670659139474232,98.88520011374797L26.734264639409385,92.95914195565324L27.10966180569331,86.82756722690824L27.28426513884862,87.0556549628831L27.82054680496852,80.70990494507679L27.922814471530913,82.09087965129281L28.04378963807424,79.0326534504336L28.991636303774516,79.7888962752129L29.065219137032827,80.24250540654084L30.327351802412668,81.80951688450412L30.430866635640463,77.57025176422871L30.545605968856812,76.32166900007012L31.142998801581065,76.86734059653156L31.346286968040467,73.31039386363376L31.609439134438833,73.76580350638486L32.080868133958184,79.21812606839784L32.31034680039088,77.31043380911164L32.41386163361867,77.46058776772082L32.67576663335164,76.25591501935854L33.2981027993838,74.2383477299141L33.31306879936854,71.73304403770672L33.49141363252004,72.81939025448386L33.631096299044295,74.7659616370106L33.86681079880397,79.81819551367998L34.250938131745656,80.26000818984562L34.668738964653016,81.8198594535608L34.71238979794184,78.87147921314873L35.0029796309789,77.10245110133972L35.145156630833945,79.92532517323545L35.196290464115144,80.3242859659629L35.541755630429584,77.9741351660388L36.015678963279726,76.56404468943535L36.086767463207245,75.71799040467964L36.492096629460654,79.09464873939454L36.75150729586283,81.12064373918354L36.85876362908681,82.33624073868253L37.91261946134568,80.47607166913478L38.01239279457728,83.24426113103695L38.543685794035596,84.90517480806774L38.6197629606247,78.1331412075424L38.68710996055603,77.95421195064162L39.32565929323832,77.84685439650272L39.36806295986175,77.78243986401992L39.870671126015985,80.33331841338119L40.11386862576803,80.56908190856934L40.27101162560781,82.00530364010494L41.003098458194735,80.27750941018047L41.19890362466176,76.65130560338231L42.77033362305959,73.18081968488238L43.23677395591736,74.98281903704827L43.375209455776215,77.35878228276937L43.49244312232336,80.07912386462358L44.24074312156041,76.53227427604945L44.60366862119039,75.69892815732665L45.04267128740946,79.08321138935784L45.96682178646723,79.81901769415492L46.22747961953481,78.96573784261156L46.26614178616206,84.9275881037936L46.54051845254898,80.73611645397317L46.82237811892828,79.51599709850251L49.30174544973374,77.48916185079851L49.4376866162618,76.27306070217611L49.551178782812755,82.0172181851107L49.96399094905853,78.98989450276343L50.19097528216044,82.35255483104147L50.289501448726654,77.8963328559003L50.55888944845199,77.81212693965877L50.607528948402404,79.05636702433547L50.858209448146816,79.80291107514151L50.861950948143004,80.25083750562514L50.952994114716844,76.63530246065046L51.23360661443074,77.05550870250889L51.31342528101603,77.30763244762394L51.53167944746017,78.7536703291146L52.19143061345418,77.03176578916575L52.686555779616036,75.99862306519645L52.79256494617462,77.96826469965809L52.82748561280568,81.7395769491783L53.98485627829234,80.11807339562559L54.07839377819697,77.85040762907235L54.160706778113045,77.78457180356202L54.46376827780406,79.03983394267742L54.50243044443131,77.20346395730347L55.05866677719752,77.39640560050069L55.22703427702586,78.80693422084063L55.229528610356645,79.6532513930446L55.27692094364166,77.57151442752375L55.6498237765948,76.32247224821126L55.782023443126675,80.7521014783102L56.040186942863464,80.82035174752632L56.4380331091245,80.86130190905601L56.61014210894902,79.59110837155221L57.13519927508036,80.12375588347155L57.17885010836919,85.62239892830956L58.36365844049454,79.85823931426114L58.36490560715993,76.39974354583207L59.246652439594264,74.32464608477463L59.36887477280299,75.66911487698339L60.54121143827439,77.77055978673025L61.0737516043981,76.44189946373515L61.10617793769836,70.46564873225164L61.18849093761444,74.64848009989122L61.361847104104356,81.04246982373978L61.43917143735885,80.99457275478409L62.145067769972485,77.08154361014584L62.364569103082026,73.43896248894127L62.39699543638229,75.1377047194834L62.5753402695338,78.74647732665186L62.94450160249074,77.0274499876881L63.12159926897685,74.70126994988827L63.23883293552399,78.48461646489477L63.25629326883952,78.16509710505548L64.11184960130056,79.2681491235735L64.15799476792019,81.22474396910593L64.70300660069783,78.51440997316055L64.77284793395997,75.59344594117171L65.39518409999212,77.72515842524327L65.67205509970984,79.00418591568616L65.80300759957632,78.4768387755303L65.96763359940847,76.86566685701519L65.97761093273164,79.78325460917095L66.14223693256379,81.5338072604644L66.32557043237686,79.99461158239725L66.56752076546351,84.25014871324339L66.60244143209458,85.50870735732946L67.01899509833653,81.08478800609468L67.03396109832129,84.90425456746185L67.0788590982755,84.60640723543894L67.14620609820683,84.42769883622518L67.19235126482646,84.32047379669693L67.23849643144607,77.78232060087194L67.39189793128968,76.44895595222016L67.79847426420848,74.35417352860748L68.00176243066787,78.27635861212632L68.09405276390711,84.51396056550244L69.03566359628041,80.48793993099845L69.19654809611639,84.5461457224041L69.78271642885208,77.91772375629625L69.88747842874527,77.82496147989637L70.62580109465917,76.47454047963481L70.66321609462102,79.54857878274271L70.90142492771149,77.5087108613426L71.34042759393057,77.57955374292419L71.69836442689895,76.32729583745152L72.04133525988262,76.87070472858952L72.18101792640687,78.49151369769393L72.90312742567062,76.87447181031337L73.23362659200032,77.19901031230664L73.38328659184774,79.98326068234579L73.9519945912679,79.06428363552608L74.45834425741832,77.21813377301264L74.7165077571551,72.22615295223979L75.199161256663,73.11525536304086L75.4535832564036,76.23824407836474L75.72795992279053,79.40680094198068L75.81900308936437,77.4236441568854L76.12705325571697,78.82327735467146L76.41514875542323,78.36829363892149L76.74938942174911,76.80053977504988L77.49145358765921,78.44941472557015L77.88555825392405,76.84921242703909L77.90800725390116,78.47861831676367L79.21753225256602,82.04578911944164L79.36843941907884,81.5965643322052L79.45823541898727,78.73750219102013L79.57546908553441,75.72730127188746L79.8099364186287,76.51070798925109L79.90970975186029,78.27551565409088L80.06809991836548,78.03963661857313L80.07683008502325,77.89810919726249L80.13170541830064,77.8131927444761L80.19780525156658,80.35177014164748L80.83635458424887,79.2853893111071L81.02093525072733,82.52985171604767L81.52977925020853,78.00271098690399L81.69814675003687,79.17071745268261L81.88646891651155,79.8715213321498L82.72955358231862,81.58676729425169L82.82807974888485,83.91067850593446L83.9355637477557,82.71549796410089L84.35585891399383,83.29315327342236L84.48805858052572,79.75545555575042L84.76991824690501,81.51712782841206L85.03307041330338,79.98460392316585L86.39372924524943,80.35985321443972L86.49225541181565,81.87976642362567L86.64939841165543,81.49695071471561L87.30914957764944,79.97249765494799L87.37150791091919,77.76306218466578L87.54486407740912,77.73216453691808L88.32309607661566,77.71362594826947L88.52264274307886,78.99726642950189L88.71595357621511,83.65174162150618L88.83194007609684,86.44442673670875L89.54407224203746,80.35145599930063L90.16017257474265,80.5799644601206L90.64656757424673,78.12754226776937L90.92593290729523,77.95085258678023L90.96708940725325,79.13960241260835L91.1579059070587,81.14761594252684L91.17661340703964,77.17336952279148L91.62684057324726,74.78882167095027L91.92366623961131,74.65285659426716L91.93738507293065,78.45556845152211L92.11822423941295,71.67385012492385L92.17309957269033,74.07863730107293L92.44373473908107,76.81627324118398L93.29679673821131,77.164091170829L93.45892840471268,78.66754556303762L93.9104027375857,76.98009092951956L94.2147114039421,81.14667268709516L94.49282957032521,84.94138537606214L95.20496173626583,83.3339220861775L95.43444040269851,83.66420774666834L95.54294390258788,79.978088239698L95.76618673569361,80.35594380435901L95.80734323565166,76.69836623989079L25.01442180782954,77.09334697005308L25.23766464093526,78.62509904257207L24.993219974517825,76.95462301724024L25.341179474163056,78.54186467088437L25.374852974128725,78.19944602864923L25.39605480744044,80.58352211215136L26.020885306803386,79.42444049340943L26.079502140076954,80.02375515658588L26.23040930658976,77.79381668564851L26.489819972991942,73.8663263342429L27.162042805639903,81.8679411987724L27.169525805632272,80.19509194538205L27.196963472270966,83.07567329661266L27.309208472156524,79.62496756966458L27.531204138596852,78.84930776791735L25.218957140954338,83.56296642455547L25.307505974197387,79.91734344643028L26.383810806433363,77.72996965955517L26.89265480591456,79.00707265627332L28.097417804686227,79.77333445430422L28.294470137818653,80.23309153312275L28.536420470905306,79.21418214599224L29.35456180340449,78.60283651371397L29.813519136269885,78.23602913434699L24.988231307856243,75.42641743788357L25.373605807463328,80.21446859211358L25.42598680740992,84.38206291907319L25.932336473560333,80.40880134314092L26.85274547262192,80.61437166642477L27.088459972381592,80.73771386039506L27.144582472324373,76.92742827351243L27.66714530512492,77.23078419022606L28.716012470722198,74.82327047141102L28.836987637265526,81.14734404665165L29.101386970329287,79.76273365410961L29.82599080292384,78.93196741858436L29.84345113623937,79.72827131169083L30.180186135896047,82.79558091639794L30.509438135560355,80.75167577595737L30.607964302126568,79.52533269169304L30.75388280197779,82.67381774439924L31.436082967948913,83.26814514160137L31.583248634465534,83.62474157992266L31.678033301035562,78.65964490522897L32.1020699672699,79.5648778036776L32.640845966720576,81.40278117716838L32.79798896656037,78.62123229799803L33.236991632779436,75.65753933607422L33.30059713271459,79.05837809660635L33.32803479935328,78.50935408408242L33.36919129931132,78.17993967656805L33.400370465946196,81.86658193532426L33.72463379894892,82.7838036561564L33.72712813227972,83.33413668865565L33.85433913215002,82.36957287373362L33.8580806321462,81.79083458478038L34.25592679840724,84.03311888025166L34.612616464710236,82.78896218869123L34.8246347978274,79.45294090491174L35.59164229704539,82.63038267233047L35.753773963546756,76.76826592625206L36.08177879654566,77.13528678186984L37.7030954615593,81.23979019850535L38.614774293963116,82.40772861406502L38.94402629362742,81.81372802897923L39.123618293444316,78.86780040908455L39.182235126717885,78.39500747156934L39.32815362656911,78.11133170906021L39.472824959754945,80.53065352039795L39.48155512641271,81.9822466072006L39.83699762605031,80.26367519043897L40.71375579182307,79.232532340382L41.00559279152553,77.3190829959262L41.09663595809937,81.35006792693915L41.80377945737838,76.00007707901726L41.888586790625254,76.67437347352897L41.98461862386068,78.3737149446576L42.00207895717621,81.98284709617799L42.050718457126614,85.44309002151184L42.09062779041926,84.92970850786894L42.82895045633316,84.62167959968318L43.37022078911463,87.02638952361494L43.4562752890269,84.58492457470919L43.537341122277574,83.12004560536575L43.81795362199148,79.65159095491644L43.8379082886378,76.27575453022526L44.0175002884547,78.13454357867538L44.04992662175496,77.95505337332385L44.09607178837459,76.5525956156913L44.57373662122091,77.00588459553339L44.59743278786341,74.68833071459542L45.05389578739802,79.77161655814068L45.194825620587665,80.23206079542463L46.74380661900838,80.508327337795L46.78621028563181,85.85314180090366L46.884736452198034,82.5862123066608L47.40605211833318,76.74176370685026L48.02339961770376,81.00367635349357L48.83031645021438,77.08700576937154L49.06977244997025,81.21082159100635L49.678389782683055,79.80082018072241L49.778163115914666,77.66005570013044L50.2009526154836,76.37559701177527L50.23961478211085,76.89968543318376L50.42294828192393,78.50890212045047L50.83201894817353,78.17966849838888L51.78734861386617,75.39260105630872L51.89335778042476,78.89941512874705L52.07170261357625,78.41397630336684L52.55186177975337,80.71224027698192L52.892338279406225,78.20690775788614L53.09562644586563,80.58799914969353L53.47975377880732,80.72189035035632L54.149482278124495,78.21269780191079L54.3253327779452,80.59147317610831L54.9888254439354,79.42921113178359L55.00878011058171,82.6161448084536L55.48519777676265,85.8230686488772L55.769551776472724,81.27340478102332L55.84687610972722,79.83837009473258L56.09880377613704,80.27211291737979L57.42454194145203,84.41664951423292L57.82862394104004,79.13478966581513L57.857308774344126,78.55520102560769L57.963317940902705,79.50221147590483L57.96705944089889,80.07041774608311L58.44721860707601,73.93752333608204L59.20674310630162,72.84731395892462L59.28032593955994,72.19318833263017L59.70186827246348,71.80071295685349L59.8228434390068,76.74428226907392L60.13214077202479,75.82613295314135L60.66842243814468,73.98047972916018L61.46037327067057,75.46261506361473L61.76967060368856,75.05713262986585L62.11014710334142,77.40337043845973L62.43939910300573,76.22158585477283L62.50924043626785,78.10204237340392L62.637698602803546,76.64078901573934L63.22261976887385,78.35356426998383L63.25130460217794,76.7917021536873L63.66162243509292,75.85458488390938L63.953459434795384,77.88184179088584L64.03452526804607,81.68772320391494L64.8152516005834,80.08696114846757L65.05221326700845,84.30555845288558L65.27670326677958,79.06813502900674L65.5261365998586,81.10473551236588L65.62590993309021,78.44240489911653L65.76309826628368,83.31882470327496L66.04495793266297,82.3603856825052L66.37171559899649,81.78532227004332L67.09631943159103,82.73504785698782L67.65879159768423,76.83106503704647L67.79348559754689,78.4677298827681L68.13022059720358,79.44972879020109L69.00947309630712,80.03892813466086L69.3449609292984,79.09768410691512L69.41854376255671,75.94341042142446L69.51831709578832,79.2299007478165L69.61185459569296,82.49655857807333L69.81389559548697,83.16178964180584L69.93985942869186,80.97140101120212L70.14439476181666,82.24669510168309L70.67319342794418,81.71710792155007L70.69813676125209,78.80982834462704L71.40403309386572,77.06546059847322L71.44394242715836,74.72407631635932L71.62353442697524,77.20353665035582L71.8667319267273,74.80692194748887L71.90539409335454,77.25324402903355L71.97398825995127,78.72103727796035L72.0176390932401,80.89647686173805L72.03011075989406,79.61221334316143L72.2733082596461,80.13641886643708L72.66117709258397,80.45094218040246L73.19745875870386,81.9344198032033L73.60777659161886,82.8245063768838L73.68011225821178,78.17950378340566L74.38101992416382,77.982029496162L74.39972742414474,76.56878128939421L74.41594059079489,78.31035963417673L74.62671175724665,79.35530664104625L75.05199559014638,79.98227484516798L75.27149692325592,80.35845576764102L75.47603225638072,80.58416432112482L75.49349258969625,80.71958945321511L76.01979692249299,76.91655362920444L76.0908854224205,78.5190230380629L76.2442869222641,79.48050468337794L76.46378825537364,80.057393670567L76.58850492191316,81.69829069730201L77.13351675469082,77.50377437565659L78.0489370870908,77.57659185151257L78.98306491947174,78.91504597144775L79.80120625197092,75.83382754014404L79.80245341863632,73.98509648136181L79.87478908522924,76.7601487493573L80.12422241830826,74.54088920688977L80.52456291790008,73.20933348140926L80.98476741743087,78.88421821822897L81.02592391738891,78.40485815705598L81.26787425047557,76.8224784859306L81.47739825026194,77.16781431767697L81.54599241685867,74.78548854788156L81.6657204167366,77.24038398926916L82.23567558282217,80.00808488852333L82.39656008265814,79.07917815923261L82.86424758218129,77.22707048723656L83.13488274857204,77.41056951846055L84.06901058095296,77.52066893719493L84.11765008090337,77.58672858843558L84.36583624731699,82.80541891686639L84.88964624678295,83.34710584508166L85.22263974644342,82.37735436758922L85.41220907958349,80.50073984667213L85.71028191261291,84.55382567180833L86.09939791221619,81.80662262920362L86.30767474533718,81.45306443806238L87.10211991119384,81.24092952337764L87.61345824400584,82.40841220898842L87.62842424399058,83.10890182035487L87.93647441034317,79.64490468390993L88.07740424353283,81.45079730530779L88.27819807666144,76.06051470603845L89.06890174252193,74.12110878089848L89.11629407580693,75.54699249465767L89.20609007571538,77.69728635733483L89.49667990875244,81.57698994378433L89.53534207537969,82.61004846123241L89.67003607524236,83.22988357170127L90.26867607463201,81.01225736913936L90.50563774105707,79.68168164760222L90.6503090742429,80.17809984910154L90.96085357392629,80.47595077000116L91.53579740667342,80.65466132254092L91.85631923967998,76.87759675079992L91.96856423956554,75.90612164217696L92.34770290584564,71.43894567373836L92.55722690563202,75.23245826478322L93.19203473831813,74.91903855056694L94.70484790344238,77.32051399088037L94.70609507010778,78.76139925506844L94.8794512365977,78.33116677915969L94.91686623655954,80.66255456245763L94.96800006984076,76.88233269474996L95.50677606929143,81.08801774623342L95.96822773548763,83.61142877712346L96.48829623495739,86.42023903007913L96.50326223494213,84.2212342785877L96.63421473480861,77.7227768900064L97.04453256772359,76.41322972570084L97.71924973370234,78.21702869596072L97.74918173367182,76.70978080927343L97.79033823362985,75.80543207726107L98.45258373295466,80.44187737574008L99.1547385655721,74.16039911387622L99.22707423216502,75.57056669444435L99.50768673187892,76.41666724278521L99.8157368982315,78.21909120621135L101.55802872978846,79.30054558426703L101.86732606280646,81.24418184552205L102.06936706260045,82.41036360227507L102.62435622870127,81.81530902190525L102.74283706191382,78.86874900484015L102.92741772839229,78.39557662902268L103.04340422827403,79.40643683795383L103.33524122797648,78.71818932889092L103.57469722773234,79.60000445787477L103.70440256093343,78.83432990084346L104.62481155999501,77.08016153220308L104.83932422644297,73.43813324217564L104.94907489299774,76.4319708058456L105.06880289287567,75.63874607520437L105.12243105948765,72.57328396797641L105.59635439233779,78.50258851016929L105.7784407254855,75.58635306337696L106.56665005801518,75.13137542972318L106.8447682243983,76.1531524839525L107.7851318901062,75.4714550820685L107.85247889003755,78.94672754420291L108.02957655652364,77.14760011821876L109.02730988883972,79.95241456589306L109.32662988853455,77.75101233123283L109.68830822149913,76.4301709904367L109.82799088802338,78.22719345480225L110.5039552206675,78.01064329899995L110.6872887204806,79.1754768399402L111.1474932200114,82.46390423334755L111.16370638666153,77.96314249728391L111.26971555322012,77.85221272448895L111.77232371937433,80.3751821296552L111.90452338590622,81.88896377275495L112.69273271843592,81.50246912419318L113.01325455144246,81.27057233505613L113.4335497176806,79.83667062715227L113.61937755082448,80.27109323683158L114.01223505042394,79.23698316821756L114.01847088375092,79.91128076147074L114.03717838373184,81.61062295184426L114.44874338331222,76.15641009396035L114.48865271660486,72.88388237922996L115.12470771595638,74.80465665365661L115.27686204913458,74.66235758389095L115.62482154877979,77.16650541087479L116.83831471420923,77.37423047264349L117.23616088047028,76.20410187528307L117.41700004695257,78.09155198571008L117.47436971356073,75.33973114870143L118.13037937955858,78.86769318418268L118.18026604617437,78.39494313662823L118.21768104613622,80.70082037693875L118.23015271279017,79.49481945228186L118.32493737936021,78.77121889748774L118.36734104598364,79.63182219903287L119.09693354523976,76.2638932766951L119.3950063782692,76.83266319213568L119.68559621130625,82.35297967908645L120.47255837717056,81.7808786679921L120.51745637712479,80.14285442691386L120.90033654340108,83.04433078553174L120.90158371006648,84.78521660070248L121.27448654301962,78.06116628327527L121.59251404269536,77.91102699608378L121.76836454251607,77.82094342376888L122.13503154214224,76.47212964595833L122.32958954194388,78.25236864811521L122.61519070831935,76.73098478056613L122.89081454137167,75.81815446003667L123.04795754121145,76.56521990214061L123.43208487415313,78.3082228018246L123.50566770741145,76.76449727279176L123.65408054059347,74.54349832095045L123.80872920710246,77.09518985311048L125.28412737226486,76.03667750356328L125.38390070549647,76.69633372825658L126.0336745381673,70.61830929096453L126.51258653767904,73.44531280069732L127.50408403666815,72.55198763769378L128.3746063691139,69.42646527104846L128.49807586898805,75.31973365759089L128.66769053548177,73.67664015182991L128.81984486865997,72.69078404837333L128.8921805352529,70.80450675187778L128.97823503516514,76.1465585460885L128.98322370182672,79.3517896226149L129.93730620085398,77.39063736526596L130.2378733672142,82.68776418296461L130.4910482002894,78.09745846705417L130.55465370022455,79.22756594077272L130.64070820013683,79.90563042500385L131.3266498661041,77.72294184669931L131.57857753251395,79.0028559685598L131.70953003238043,81.06556807609772L131.93277286548613,78.41890443735562L131.95023319880167,75.53614261968877L131.9951311987559,75.10124916351026L132.0462650320371,76.13507672422476L132.16349869858425,74.16584599181024L132.2246098651886,79.45812572446958L132.44909986495972,77.45443902637875L132.5576033648491,78.84175427636745L132.5800523648262,79.6741434263607L132.74841986465455,81.46834055077824L133.77982669693628,82.54485882542876L134.0828881966273,78.01171525253264L135.06814986228943,76.5865927432166L135.1517100288709,82.20533740973498L135.22778719546,79.10276603753799L136.2716656943957,81.12551411748461L136.4500105275472,81.04439933103097L137.10477302687963,83.58525772800203L137.59740385971068,81.22548186291984L137.76701852620442,78.5148527094489L137.78572602618536,76.88847521736633L138.60511452534993,77.20741235653841L138.92937785835267,82.5778291777281L139.1463848581314,79.32626109833384L139.23742802470525,76.0805566162757L139.41951435785293,76.72266119588404L139.44321052449544,74.51839667480581L139.5255235244115,74.49060159658048L139.72631735754013,75.7686881840669L139.8398095240911,76.53554013655875L139.89967352403005,75.70088767363225L140.1403766904513,72.61056892703311L140.5195153567314,75.93543221676009L140.66169235658646,74.04605928733145L141.83777052205403,69.02814462640943L142.03607002185186,75.08074127080748L142.36656918818156,80.00706289186793L142.5087461880366,80.37332859566096L142.82926802104313,79.2983243835152L143.35681952050527,77.35855822180612L143.41917785377504,78.78422579362389L143.63369052022298,78.34486270229294L143.6798356868426,79.37600848191599L143.9878858531952,77.40516868084659L144.55035801928838,77.51742843462657L144.58527868591943,76.29002065247293L144.80602718569438,71.66928507991594L145.5368668516159,76.66542554291138L145.56555168492,79.66310982070867L145.77632285137176,82.75648402180862L145.77757001803715,85.9072721768902L145.85614151795704,86.50298143551757L146.326323350811,84.27087972185075L146.41487218405405,81.63685505922905L146.5832396838824,81.35120389607765L147.00602918345132,83.76934046703002L147.21555318323772,78.74640423749341L148.03868318239847,74.43787886534983L148.86929618155162,77.03181817975012L149.11498801463446,77.29341813396867L149.16487468125024,80.03990537534303L149.9181633471489,76.50874318248121L150.08528368031185,74.39004586676411L150.33845851338702,79.59264564944189L150.5841503464699,81.41944188462696L150.9595475127538,78.63122872247317L150.98823234605788,80.84259172844574L151.22768834581376,76.99035499434284L151.6729268453598,78.56330385714591L151.76895867859523,79.50707317482777L152.02088634500504,81.36809839985848L152.12689551156362,79.8951862660337L152.32893651135763,82.89572988900365L152.6382338443756,78.22223789067758L153.12837034387587,80.59719722936838L153.30671517702737,75.54835466047481L153.56737301009497,80.28763092566834L153.76691967655816,80.5416694159412L153.98018517634074,72.9255107035753L154.17599034280778,74.8296336482638L154.73222667557397,73.38258014623366L155.02032217528026,77.69340258270203L155.4181683415413,78.98513241016143L155.53041334142685,82.3496975754803L155.81102584114075,81.77890940582839L156.19390600741704,84.02596377288047L157.08812450650535,80.19514185542528L157.59696850598652,79.19141233937378L157.64560800593696,79.88393826416447L157.65807967259087,76.41516291577406L158.35898733854293,71.74437043789662L158.58971317164105,72.82618585443498L159.28313783760072,72.18051146993638L159.4340450041135,71.79310683923721L159.5350655040105,76.73971859850415L159.6859726705233,77.11815838522112L160.01148317019144,76.05045862282965L160.24719766995113,79.29412966865961L161.08155216910043,73.47175048962795L161.3721420021375,73.86261388547376L161.94958016821542,76.68665919182448L162.02441016813913,78.3810863756349L162.15286833467482,78.10297905149955L162.2838208345413,77.93611465701835L162.49958066765467,81.72028692359443L163.16057900031407,76.22220847701045L163.41250666672389,75.51288867790326L163.78665666634242,76.38206043286057L164.41273433237077,78.19832712025656L165.16103433160782,77.99332349827256L165.2757736648242,76.57555769066053L165.43291666466396,77.01966184051493L165.7933478309631,75.99136069600596L166.37826899703344,79.25867091256539L166.42815566364922,77.33476613923622L167.04550316301982,77.47518690966034L167.43337199595769,81.44373027517963L167.64913182907105,79.94056539122639L168.00582149537402,77.74390282643283L168.4410826615969,76.4259052875567L168.80151382789612,73.0455794953878L169.35650299399694,69.72262038566485L169.36149166065852,67.72884491983108L169.43008582725525,70.41687054359565L169.795505660216,78.50350408996243L169.8728299934705,79.47119331451768L170.08858982658387,80.05180684925082L170.65106199267706,75.22112043240429L171.168636158816,73.61747221671797L171.5839426583926,81.71862872825741L171.65128965832395,81.40026809749467L171.71988382492066,77.3249608157722L171.72611965824763,74.87977644673869L172.06909049123126,76.00219309416183L172.12770732450485,76.6756430826157L172.13020165783564,75.78494944126642L172.3958481575648,80.42958779414329L172.53553082408905,74.15302536491815L173.22271965672175,76.86090607949112L173.96603098929722,74.60134360497005L174.35639415556588,74.54036975467902L175.05106598819094,71.9142581756612L175.53746098769508,70.33859122825051L175.82056782073977,69.39319105980407L175.8367809873899,74.00500549642265L176.09868598712285,79.36162142723703L176.20095365368527,78.69130008246083L176.38927582015992,80.87863454443833L176.42419648679098,82.19103522162482L176.68485431985854,81.68371199351512L176.82079548638663,78.78979078780607L176.89063681964876,79.64296533322386L176.95299515291848,81.44963369489615L177.52669181900023,82.53363471189952L177.61898215223948,81.88927168767994L177.95446998523076,81.50265387314818L178.01183965183895,79.97591955000752L178.11286015173596,77.76511532170151L179.56082065025964,79.02816005356112L179.58701115023294,84.96504143036333L179.5957413168907,79.46382481549337L179.6244261501948,78.75262211541462L179.6743128168106,77.0311368609458L180.17567381629942,74.70348207384286L180.43633164936702,73.3068892015811L180.941434148852,75.05846074706727L181.07113948205313,73.51987640551575L183.28236597979864,77.77578033827128L184.67669831171037,80.3293226979246L185.17431781120303,80.56668447929498L186.28304897673925,79.41433791369559L187.10742614256543,77.42816633991436L187.12613364254634,78.82599066448883L187.25459180908206,78.36992162481191L187.52772130880356,80.68580746984897L188.62148647435507,84.66486624571442L188.90833480739596,85.7575378768121L188.97069314066567,81.23408631778425L189.25629430704117,82.40430628563237L189.40969580688477,80.51691099749803L190.3912159725507,81.97400109346063L190.74790563885372,85.43778241988144L191.0085634719213,81.04223304362586L191.5585639713605,82.28919432113733L191.5635526380221,83.03737108764422L192.06740797084174,83.48627714754836L192.1023286374728,79.87132988022601L192.57001613699597,85.47094332636226L192.57375763699213,81.06212958751435L193.05142246983846,79.71160497862721L193.25471063629786,75.0169993100301L193.3233048028946,78.67405408097989L194.73883896811802,75.68923240586334L195.21775096762977,72.60357576637178L195.38611846745812,75.93123632036327L195.91366996692022,79.22259628717978L196.06208280010222,81.19741226726971L196.3751216331164,84.97182912416687L196.69439629945757,83.35218833504034L197.02115396579106,81.08564022714282L198.14235679798125,74.54665682471786L198.9193416305224,77.09708495537093L199.11764113032024,79.9221054681844L199.59281162983575,84.20664504471566L199.76616779632567,84.18784152179123L200.61174679546355,84.17655940803655L201.78408346093494,81.58026287094056L202.48124962689081,80.02248494868293L202.73317729330063,77.79305456090677L203.38669262596764,75.16063269381944L203.49644329252243,77.4654704768319L203.51265645917255,78.84837314663935L203.90177245877584,79.67811474852383L204.13374545853932,78.88119607523291L204.17614912516277,78.40304487125834L204.7298911245982,82.00044505213845L204.80846262451809,78.97983062298007L205.43454029054644,81.05175286874987L205.44825912386577,78.41061531294692L205.70143395694097,76.82593277946513L205.8461052901268,77.16988689379771L206.19531195643745,76.08149572797562L206.6143599560102,76.72322466290399L206.69792012259168,83.58208019596904L207.01095895560584,81.22357534370003L207.38760328855517,79.80847243233862L207.5784197883606,81.54893795436499L208.6509831206004,76.11939909547277L209.3281946199099,76.74596668340227L209.42422645314534,78.41667087058158L210.28601861893335,76.82956611404596L210.5579009519895,74.58253962570295L210.60155178527833,73.23432373269718L211.2126634513219,80.19397600342334L211.2899877845764,79.19071282817261L211.35858195117316,79.88351855744378L212.11062345040637,79.00443836058487L212.88760828294753,79.77175387689114L212.9749099495252,80.23214318667489L213.01107778282164,79.21361313812355L214.18840311495464,79.89725874341434L214.7571111143748,80.30744610658884L214.88681644757588,76.6692676212287L215.0676556140582,75.78112416443422L215.27468528051378,76.54300172477913L215.71493511339824,74.41060099214286L215.74361994670232,73.1311605525611L215.93069494651158,72.36349628881204L217.02695444539387,69.31337046171939L217.32876877841952,73.95711313757188L217.45847411162057,75.44859510866173L217.67298677806855,73.75395702247242L217.7615356113116,75.32670143960205L218.12944977760316,74.97558445545823L218.2653909441312,76.05967789939355L218.83409894355137,76.71013396575474L218.9787702767372,78.39517123999308L219.51879344285328,76.81666633569284L219.5973649427732,82.34338156522074L220.07378260895413,80.48035616525107L220.36437244199115,80.65730455969086L220.48410044186912,82.05823723077633L221.66392010733287,77.71974229574118L222.346120273304,79.00093623798493L222.5494084397634,77.18012533448795L222.84498693946202,77.3824024268114L223.0033771059672,77.50376868220543L223.65315093863805,77.57658843544186L223.87015793841678,76.32551665296214L223.97741427164078,78.1644008523175L224.42514710451763,84.44678590961716L225.7259419365247,79.15287150304569L225.84816426973342,77.2712864935244L225.86313026971817,77.43709912223325L225.9853526029269,78.83135033388017L226.1599559360822,78.37313742644672L226.37696293586094,76.80344604756503L227.1776439350446,78.45115848907923L227.28864176826477,80.73454958840937L227.6578031012217,79.51505697916423L227.8685742676735,80.07812504803876L227.87106860100425,80.41596588936348L228.12549060074488,80.61867039415831L228.63932326688766,78.150765828192L228.64306476688384,77.96478672303378L228.76154560009638,73.96890835667406L229.09578626642227,72.86614497127982L229.15814459969204,73.4992505744649L229.521070099322,75.17387757079756L229.71313376579283,76.17865376859716L229.87401826562882,74.19199221843368L229.89397293227515,70.41046801949237L230.13342893203097,74.61537167223564L230.32798693183264,75.84355022945999L230.70961993144354,80.46474826705943L230.8692572646141,79.35317618635426L231.6824099304517,81.2757602067744L232.97572176246643,77.25025608134001L233.11789876232146,73.54018997165778L233.1403477622986,71.31415030584846L233.4434092619896,73.8628174096277L234.01336442807516,75.39201767189522L234.73422676067352,73.72001056041252L234.7367210940043,72.71680629352291L234.75293426065446,73.40964736781075L234.93626776046753,75.12011564680505L235.15701626024247,77.44116024862323L235.31665359341304,80.12855064413577L235.38524776000978,81.74098488144328L235.58728875980376,78.82415452056296L235.66586025972367,77.07405630403478L235.9664274260839,76.02399737411785L236.19216459252038,72.80443474732449L236.53887692550023,73.4622244400917L236.71597459198634,73.85689825575201L236.91053259178796,79.27275708283464L237.0277662583351,76.04845420697617L237.55905925779345,79.29292701914753L238.122778590552,74.7657925343423L238.61790375671387,77.2285663811456L238.8099674231847,76.11670342038437L239.0194914229711,76.74434927834923L239.64432192233403,77.12093679312814L239.69670292228062,77.34688930199549L240.44250858818688,69.71387900078625L240.76427758785886,74.19741826101196L241.1508992541313,73.00325091388257L241.37788358723324,72.28675050560494L241.39908542054496,74.44637752948158L242.05260075321198,77.03691737822916L242.20475508639018,72.11742311536969L242.5015807527542,78.22907199860524L242.99545875225067,81.89606132854657L243.3933049185117,80.21196402324655L244.0306070845286,79.20150564006654L244.29999508425396,79.88999424458014L244.78763725042344,81.59785104170989L244.90985958363214,82.62256511998777L244.99341975021363,80.64786629811128L245.452377083079,76.87351973614216L245.78038191607794,73.31414816453905L245.79784224939345,78.94710702810687L247.33185724782945,83.62164598066917L247.45782108103433,79.9525511800985L247.80702774734496,80.34062156859933L248.72120091307957,79.2787001672782L248.98934174613953,77.34678369206391L250.00453541177114,80.07192471020018L250.42358341134388,80.41224568666033L250.44353807799024,81.91120190695803L251.35022824373246,81.51581200471504L251.53231457688014,81.27857806336924L252.24070524282456,79.84147406414016L252.39909540932973,81.56873893344591L252.4352632426262,83.89986148945098L252.47392540925344,84.0037713886324L253.2197310751597,80.18182642487645L253.22222540849052,77.88865944662287L253.3980759083112,76.51275925967072L253.50907374153135,75.68721914749943L253.86701057449977,75.19189508019664L254.05283840764363,69.71564610212855L254.15136457420985,76.78800579066055L254.94580974006652,77.14713070051495L255.37982373962402,79.9521329152708L255.40476707293192,80.34037060970269L255.65170607268016,77.98378595751862L256.4336795718829,80.454126069473L256.699326071612,81.93633013664562L256.84025590480167,80.23612530810598L256.99490457131066,75.33171150771737L257.2967189043363,80.15764503401387L257.46383923749926,75.2846233432621L257.58980307070414,74.95033759765425L257.6060162373543,74.74976615028955L257.92653807036083,81.10324145397878L258.26701457001366,81.03103573292748L258.5738175697009,78.3981850314535L259.04524656922024,79.40800187941232L259.1437727357864,78.71912835376601L259.3408250689189,75.71627696953499L259.6388979019483,75.209329773418L260.26372840131125,80.08421599343423L260.70522540086114,80.41962045660075L260.8648627340317,80.62086313450067L261.0881055671374,76.8573178379758L261.19910340035756,74.59919066006087L261.7291492331505,74.5390779877335L262.0895803994497,74.50301038433712L262.1619160660426,77.07089709114248L262.82665589869816,74.72733821196088L263.4115770647685,70.73167561560871L263.74332339776356,73.51333259548383L264.01146423082355,75.18232678340891L265.40454939606985,78.77325056500717L265.5853885625521,75.74875029627968L265.76373339570364,81.70263194157285L265.8335747289658,78.80114275664071L266.03561572875975,77.06024924568142L266.28754339516956,74.72094950468424L266.52325789492926,78.49642419777237L266.7128272280693,80.76170901362524L266.72654606138866,75.64706173102893L267.4860705606143,79.05209153357919L267.49230639394125,77.21081851184451L267.77541322698596,77.40081833322532L267.83777156025565,72.33576368836735L267.86520922689436,75.77054907356062L268.01736356007257,77.83142030467658L268.08471056000394,77.77317940892456L268.4838038929303,81.6225257747382L269.0101082257271,78.75307905653992L269.35682055870694,71.85235648793451L270.72122089064914,78.07003202214413L270.95444105707804,80.5058737082483L270.97314855705895,80.6726150854892L271.061697390302,74.29884173972569L271.1988857234955,78.24315953879724L271.37972488997775,76.72545931497534L271.39219655663175,77.10960281510383L271.51192455650965,77.3400889151809" fill="none"></path></g></g></g></g><g opacity="0.2"><g><g><g><path style="fill: none;" stroke="rgb(255, 112, 67)" stroke-width="2px" d="M25.151610141023,155.37163613059303L25.228934474277498,158.60854521664706L25.534490307299297,161.84545430270109L25.611814640553792,161.84545430270109L25.67417297382355,155.37163613059303L25.75025014041265,158.60854521664706L26.20796030661265,80.92272715135054L26.605806472873684,77.68581806529653L26.670659139474232,87.3965453234586L26.734264639409385,84.15963623740457L27.10966180569331,77.68581806529653L27.28426513884862,87.3965453234586L27.82054680496852,71.21199989318848L27.922814471530913,84.15963623740457L28.04378963807424,74.4489089792425L28.991636303774516,80.92272715135054L29.065219137032827,80.92272715135054L30.327351802412668,84.15963623740457L30.430866635640463,71.21199989318848L30.545605968856812,74.4489089792425L31.142998801581065,77.68581806529653L31.346286968040467,67.97509080713446L31.609439134438833,74.4489089792425L32.080868133958184,87.3965453234586L32.31034680039088,74.4489089792425L32.41386163361867,77.68581806529653L32.67576663335164,74.4489089792425L33.2981027993838,71.21199989318848L33.31306879936854,67.97509080713446L33.49141363252004,74.4489089792425L33.631096299044295,77.68581806529653L33.86681079880397,87.3965453234586L34.250938131745656,80.92272715135054L34.668738964653016,84.15963623740457L34.71238979794184,74.4489089792425L35.0029796309789,74.4489089792425L35.145156630833945,84.15963623740457L35.196290464115144,80.92272715135054L35.541755630429584,74.4489089792425L36.015678963279726,74.4489089792425L36.086767463207245,74.4489089792425L36.492096629460654,84.15963623740457L36.75150729586283,84.15963623740457L36.85876362908681,84.15963623740457L37.91261946134568,77.68581806529653L38.01239279457728,87.3965453234586L38.543685794035596,87.3965453234586L38.6197629606247,67.97509080713446L38.68710996055603,77.68581806529653L39.32565929323832,77.68581806529653L39.36806295986175,77.68581806529653L39.870671126015985,84.15963623740457L40.11386862576803,80.92272715135054L40.27101162560781,84.15963623740457L41.003098458194735,77.68581806529653L41.19890362466176,71.21199989318848L42.77033362305959,67.97509080713446L43.23677395591736,77.68581806529653L43.375209455776215,80.92272715135054L43.49244312232336,84.15963623740457L44.24074312156041,71.21199989318848L44.60366862119039,74.4489089792425L45.04267128740946,84.15963623740457L45.96682178646723,80.92272715135054L46.22747961953481,77.68581806529653L46.26614178616206,93.87036349556664L46.54051845254898,74.4489089792425L46.82237811892828,77.68581806529653L49.30174544973374,74.4489089792425L49.4376866162618,74.4489089792425L49.551178782812755,90.63345440951261L49.96399094905853,74.4489089792425L50.19097528216044,87.3965453234586L50.289501448726654,71.21199989318848L50.55888944845199,77.68581806529653L50.607528948402404,80.92272715135054L50.858209448146816,80.92272715135054L50.861950948143004,80.92272715135054L50.952994114716844,71.21199989318848L51.23360661443074,77.68581806529653L51.31342528101603,77.68581806529653L51.53167944746017,80.92272715135054L52.19143061345418,74.4489089792425L52.686555779616036,74.4489089792425L52.79256494617462,80.92272715135054L52.82748561280568,87.3965453234586L53.98485627829234,77.68581806529653L54.07839377819697,74.4489089792425L54.160706778113045,77.68581806529653L54.46376827780406,80.92272715135054L54.50243044443131,74.4489089792425L55.05866677719752,77.68581806529653L55.22703427702586,80.92272715135054L55.229528610356645,80.92272715135054L55.27692094364166,74.4489089792425L55.6498237765948,74.4489089792425L55.782023443126675,87.3965453234586L56.040186942863464,80.92272715135054L56.4380331091245,80.92272715135054L56.61014210894902,77.68581806529653L57.13519927508036,80.92272715135054L57.17885010836919,93.87036349556664L58.36365844049454,71.21199989318848L58.36490560715993,71.21199989318848L59.246652439594264,71.21199989318848L59.36887477280299,77.68581806529653L60.54121143827439,80.92272715135054L61.0737516043981,74.4489089792425L61.10617793769836,61.50127263502641L61.18849093761444,80.92272715135054L61.361847104104356,90.63345440951261L61.43917143735885,80.92272715135054L62.145067769972485,71.21199989318848L62.364569103082026,67.97509080713446L62.39699543638229,77.68581806529653L62.5753402695338,84.15963623740457L62.94450160249074,74.4489089792425L63.12159926897685,71.21199989318848L63.23883293552399,84.15963623740457L63.25629326883952,77.68581806529653L64.11184960130056,80.92272715135054L64.15799476792019,84.15963623740457L64.70300660069783,74.4489089792425L64.77284793395997,71.21199989318848L65.39518409999212,80.92272715135054L65.67205509970984,80.92272715135054L65.80300759957632,77.68581806529653L65.96763359940847,74.4489089792425L65.97761093273164,84.15963623740457L66.14223693256379,84.15963623740457L66.32557043237686,77.68581806529653L66.56752076546351,90.63345440951261L66.60244143209458,87.3965453234586L67.01899509833653,74.4489089792425L67.03396109832129,90.63345440951261L67.0788590982755,84.15963623740457L67.14620609820683,84.15963623740457L67.19235126482646,84.15963623740457L67.23849643144607,67.97509080713446L67.39189793128968,74.4489089792425L67.79847426420848,71.21199989318848L68.00176243066787,84.15963623740457L68.09405276390711,93.87036349556664L69.03566359628041,74.4489089792425L69.19654809611639,90.63345440951261L69.78271642885208,67.97509080713446L69.88747842874527,77.68581806529653L70.62580109465917,74.4489089792425L70.66321609462102,84.15963623740457L70.90142492771149,74.4489089792425L71.34042759393057,77.68581806529653L71.69836442689895,74.4489089792425L72.04133525988262,77.68581806529653L72.18101792640687,80.92272715135054L72.90312742567062,74.4489089792425L73.23362659200032,77.68581806529653L73.38328659184774,84.15963623740457L73.9519945912679,77.68581806529653L74.45834425741832,74.4489089792425L74.7165077571551,64.73818172108044L75.199161256663,74.4489089792425L75.4535832564036,80.92272715135054L75.72795992279053,84.15963623740457L75.81900308936437,74.4489089792425L76.12705325571697,80.92272715135054L76.41514875542323,77.68581806529653L76.74938942174911,74.4489089792425L77.49145358765921,80.92272715135054L77.88555825392405,74.4489089792425L77.90800725390116,80.92272715135054L79.21753225256602,87.3965453234586L79.36843941907884,80.92272715135054L79.45823541898727,74.4489089792425L79.57546908553441,71.21199989318848L79.8099364186287,77.68581806529653L79.90970975186029,80.92272715135054L80.06809991836548,77.68581806529653L80.07683008502325,77.68581806529653L80.13170541830064,77.68581806529653L80.19780525156658,84.15963623740457L80.83635458424887,77.68581806529653L81.02093525072733,87.3965453234586L81.52977925020853,71.21199989318848L81.69814675003687,80.92272715135054L81.88646891651155,80.92272715135054L82.72955358231862,84.15963623740457L82.82807974888485,87.3965453234586L83.9355637477557,80.92272715135054L84.35585891399383,84.15963623740457L84.48805858052572,74.4489089792425L84.76991824690501,84.15963623740457L85.03307041330338,77.68581806529653L86.39372924524943,80.92272715135054L86.49225541181565,84.15963623740457L86.64939841165543,80.92272715135054L87.30914957764944,77.68581806529653L87.37150791091919,74.4489089792425L87.54486407740912,77.68581806529653L88.32309607661566,77.68581806529653L88.52264274307886,80.92272715135054L88.71595357621511,90.63345440951261L88.83194007609684,90.63345440951261L89.54407224203746,71.21199989318848L90.16017257474265,80.92272715135054L90.64656757424673,74.4489089792425L90.92593290729523,77.68581806529653L90.96708940725325,80.92272715135054L91.1579059070587,84.15963623740457L91.17661340703964,71.21199989318848L91.62684057324726,71.21199989318848L91.92366623961131,74.4489089792425L91.93738507293065,84.15963623740457L92.11822423941295,61.50127263502641L92.17309957269033,77.68581806529653L92.44373473908107,80.92272715135054L93.29679673821131,77.68581806529653L93.45892840471268,80.92272715135054L93.9104027375857,74.4489089792425L94.2147114039421,87.3965453234586L94.49282957032521,90.63345440951261L95.20496173626583,80.92272715135054L95.43444040269851,84.15963623740457L95.54294390258788,74.4489089792425L95.76618673569361,80.92272715135054L95.80734323565166,71.21199989318848L25.01442180782954,77.68581806529653L25.23766464093526,80.92272715135054L24.993219974517825,74.4489089792425L25.341179474163056,80.92272715135054L25.374852974128725,77.68581806529653L25.39605480744044,84.15963623740457L26.020885306803386,77.68581806529653L26.079502140076954,80.92272715135054L26.23040930658976,74.4489089792425L26.489819972991942,67.97509080713446L27.162042805639903,93.87036349556664L27.169525805632272,77.68581806529653L27.196963472270966,87.3965453234586L27.309208472156524,74.4489089792425L27.531204138596852,77.68581806529653L25.218957140954338,90.63345440951261L25.307505974197387,74.4489089792425L26.383810806433363,74.4489089792425L26.89265480591456,80.92272715135054L28.097417804686227,80.92272715135054L28.294470137818653,80.92272715135054L28.536420470905306,77.68581806529653L29.35456180340449,77.68581806529653L29.813519136269885,77.68581806529653L24.988231307856243,71.21199989318848L25.373605807463328,87.3965453234586L25.42598680740992,90.63345440951261L25.932336473560333,74.4489089792425L26.85274547262192,80.92272715135054L27.088459972381592,80.92272715135054L27.144582472324373,71.21199989318848L27.66714530512492,77.68581806529653L28.716012470722198,71.21199989318848L28.836987637265526,90.63345440951261L29.101386970329287,77.68581806529653L29.82599080292384,77.68581806529653L29.84345113623937,80.92272715135054L30.180186135896047,87.3965453234586L30.509438135560355,77.68581806529653L30.607964302126568,77.68581806529653L30.75388280197779,87.3965453234586L31.436082967948913,84.15963623740457L31.583248634465534,84.15963623740457L31.678033301035562,71.21199989318848L32.1020699672699,80.92272715135054L32.640845966720576,84.15963623740457L32.79798896656037,74.4489089792425L33.236991632779436,71.21199989318848L33.30059713271459,84.15963623740457L33.32803479935328,77.68581806529653L33.36919129931132,77.68581806529653L33.400370465946196,87.3965453234586L33.72463379894892,84.15963623740457L33.72712813227972,84.15963623740457L33.85433913215002,80.92272715135054L33.8580806321462,80.92272715135054L34.25592679840724,87.3965453234586L34.612616464710236,80.92272715135054L34.8246347978274,74.4489089792425L35.59164229704539,87.3965453234586L35.753773963546756,67.97509080713446L36.08177879654566,77.68581806529653L37.7030954615593,87.3965453234586L38.614774293963116,84.15963623740457L38.94402629362742,80.92272715135054L39.123618293444316,74.4489089792425L39.182235126717885,77.68581806529653L39.32815362656911,77.68581806529653L39.472824959754945,84.15963623740457L39.48155512641271,84.15963623740457L39.83699762605031,77.68581806529653L40.71375579182307,77.68581806529653L41.00559279152553,74.4489089792425L41.09663595809937,87.3965453234586L41.80377945737838,67.97509080713446L41.888586790625254,77.68581806529653L41.98461862386068,80.92272715135054L42.00207895717621,87.3965453234586L42.050718457126614,90.63345440951261L42.09062779041926,84.15963623740457L42.82895045633316,84.15963623740457L43.37022078911463,90.63345440951261L43.4562752890269,80.92272715135054L43.537341122277574,80.92272715135054L43.81795362199148,74.4489089792425L43.8379082886378,71.21199989318848L44.0175002884547,80.92272715135054L44.04992662175496,77.68581806529653L44.09607178837459,74.4489089792425L44.57373662122091,77.68581806529653L44.59743278786341,71.21199989318848L45.05389578739802,87.3965453234586L45.194825620587665,80.92272715135054L46.74380661900838,80.92272715135054L46.78621028563181,93.87036349556664L46.884736452198034,77.68581806529653L47.40605211833318,67.97509080713446L48.02339961770376,87.3965453234586L48.83031645021438,71.21199989318848L49.06977244997025,87.3965453234586L49.678389782683055,77.68581806529653L49.778163115914666,74.4489089792425L50.2009526154836,74.4489089792425L50.23961478211085,77.68581806529653L50.42294828192393,80.92272715135054L50.83201894817353,77.68581806529653L51.78734861386617,71.21199989318848L51.89335778042476,84.15963623740457L52.07170261357625,77.68581806529653L52.55186177975337,84.15963623740457L52.892338279406225,74.4489089792425L53.09562644586563,84.15963623740457L53.47975377880732,80.92272715135054L54.149482278124495,74.4489089792425L54.3253327779452,84.15963623740457L54.9888254439354,77.68581806529653L55.00878011058171,87.3965453234586L55.48519777676265,90.63345440951261L55.769551776472724,74.4489089792425L55.84687610972722,77.68581806529653L56.09880377613704,80.92272715135054L57.42454194145203,90.63345440951261L57.82862394104004,71.21199989318848L57.857308774344126,77.68581806529653L57.963317940902705,80.92272715135054L57.96705944089889,80.92272715135054L58.44721860707601,64.73818172108044L59.20674310630162,71.21199989318848L59.28032593955994,71.21199989318848L59.70186827246348,71.21199989318848L59.8228434390068,84.15963623740457L60.13214077202479,74.4489089792425L60.66842243814468,71.21199989318848L61.46037327067057,77.68581806529653L61.76967060368856,74.4489089792425L62.11014710334142,80.92272715135054L62.43939910300573,74.4489089792425L62.50924043626785,80.92272715135054L62.637698602803546,74.4489089792425L63.22261976887385,80.92272715135054L63.25130460217794,74.4489089792425L63.66162243509292,74.4489089792425L63.953459434795384,80.92272715135054L64.03452526804607,87.3965453234586L64.8152516005834,77.68581806529653L65.05221326700845,90.63345440951261L65.27670326677958,71.21199989318848L65.5261365998586,84.15963623740457L65.62590993309021,74.4489089792425L65.76309826628368,90.63345440951261L66.04495793266297,80.92272715135054L66.37171559899649,80.92272715135054L67.09631943159103,84.15963623740457L67.65879159768423,67.97509080713446L67.79348559754689,80.92272715135054L68.13022059720358,80.92272715135054L69.00947309630712,80.92272715135054L69.3449609292984,77.68581806529653L69.41854376255671,71.21199989318848L69.51831709578832,84.15963623740457L69.61185459569296,87.3965453234586L69.81389559548697,84.15963623740457L69.93985942869186,77.68581806529653L70.14439476181666,84.15963623740457L70.67319342794418,80.92272715135054L70.69813676125209,74.4489089792425L71.40403309386572,74.4489089792425L71.44394242715836,71.21199989318848L71.62353442697524,80.92272715135054L71.8667319267273,71.21199989318848L71.90539409335454,80.92272715135054L71.97398825995127,80.92272715135054L72.0176390932401,84.15963623740457L72.03011075989406,77.68581806529653L72.2733082596461,80.92272715135054L72.66117709258397,80.92272715135054L73.19745875870386,84.15963623740457L73.60777659161886,84.15963623740457L73.68011225821178,71.21199989318848L74.38101992416382,77.68581806529653L74.39972742414474,74.4489089792425L74.41594059079489,80.92272715135054L74.62671175724665,80.92272715135054L75.05199559014638,80.92272715135054L75.27149692325592,80.92272715135054L75.47603225638072,80.92272715135054L75.49349258969625,80.92272715135054L76.01979692249299,71.21199989318848L76.0908854224205,80.92272715135054L76.2442869222641,80.92272715135054L76.46378825537364,80.92272715135054L76.58850492191316,84.15963623740457L77.13351675469082,71.21199989318848L78.0489370870908,77.68581806529653L78.98306491947174,80.92272715135054L79.80120625197092,71.21199989318848L79.80245341863632,71.21199989318848L79.87478908522924,80.92272715135054L80.12422241830826,71.21199989318848L80.52456291790008,71.21199989318848L80.98476741743087,87.3965453234586L81.02592391738891,77.68581806529653L81.26787425047557,74.4489089792425L81.47739825026194,77.68581806529653L81.54599241685867,71.21199989318848L81.6657204167366,80.92272715135054L82.23567558282217,84.15963623740457L82.39656008265814,77.68581806529653L82.86424758218129,74.4489089792425L83.13488274857204,77.68581806529653L84.06901058095296,77.68581806529653L84.11765008090337,77.68581806529653L84.36583624731699,90.63345440951261L84.88964624678295,84.15963623740457L85.22263974644342,80.92272715135054L85.41220907958349,77.68581806529653L85.71028191261291,90.63345440951261L86.09939791221619,77.68581806529653L86.30767474533718,80.92272715135054L87.10211991119384,80.92272715135054L87.61345824400584,84.15963623740457L87.62842424399058,84.15963623740457L87.93647441034317,74.4489089792425L88.07740424353283,84.15963623740457L88.27819807666144,67.97509080713446L89.06890174252193,71.21199989318848L89.11629407580693,77.68581806529653L89.20609007571538,80.92272715135054L89.49667990875244,87.3965453234586L89.53534207537969,84.15963623740457L89.67003607524236,84.15963623740457L90.26867607463201,77.68581806529653L90.50563774105707,77.68581806529653L90.6503090742429,80.92272715135054L90.96085357392629,80.92272715135054L91.53579740667342,80.92272715135054L91.85631923967998,71.21199989318848L91.96856423956554,74.4489089792425L92.34770290584564,64.73818172108044L92.55722690563202,80.92272715135054L93.19203473831813,74.4489089792425L94.70484790344238,80.92272715135054L94.70609507010778,80.92272715135054L94.8794512365977,77.68581806529653L94.91686623655954,84.15963623740457L94.96800006984076,71.21199989318848L95.50677606929143,87.3965453234586L95.96822773548763,87.3965453234586L96.48829623495739,90.63345440951261L96.50326223494213,80.92272715135054L96.63421473480861,67.97509080713446L97.04453256772359,74.4489089792425L97.71924973370234,80.92272715135054L97.74918173367182,74.4489089792425L97.79033823362985,74.4489089792425L98.45258373295466,87.3965453234586L99.1547385655721,64.73818172108044L99.22707423216502,77.68581806529653L99.50768673187892,77.68581806529653L99.8157368982315,80.92272715135054L101.55802872978846,80.92272715135054L101.86732606280646,84.15963623740457L102.06936706260045,84.15963623740457L102.62435622870127,80.92272715135054L102.74283706191382,74.4489089792425L102.92741772839229,77.68581806529653L103.04340422827403,80.92272715135054L103.33524122797648,77.68581806529653L103.57469722773234,80.92272715135054L103.70440256093343,77.68581806529653L104.62481155999501,74.4489089792425L104.83932422644297,67.97509080713446L104.94907489299774,80.92272715135054L105.06880289287567,74.4489089792425L105.12243105948765,67.97509080713446L105.59635439233779,87.3965453234586L105.7784407254855,71.21199989318848L106.56665005801518,74.4489089792425L106.8447682243983,77.68581806529653L107.7851318901062,74.4489089792425L107.85247889003755,84.15963623740457L108.02957655652364,74.4489089792425L109.02730988883972,84.15963623740457L109.32662988853455,74.4489089792425L109.68830822149913,74.4489089792425L109.82799088802338,80.92272715135054L110.5039552206675,77.68581806529653L110.6872887204806,80.92272715135054L111.1474932200114,87.3965453234586L111.16370638666153,71.21199989318848L111.26971555322012,77.68581806529653L111.77232371937433,84.15963623740457L111.90452338590622,84.15963623740457L112.69273271843592,80.92272715135054L113.01325455144246,80.92272715135054L113.4335497176806,77.68581806529653L113.61937755082448,80.92272715135054L114.01223505042394,77.68581806529653L114.01847088375092,80.92272715135054L114.03717838373184,84.15963623740457L114.44874338331222,67.97509080713446L114.48865271660486,67.97509080713446L115.12470771595638,77.68581806529653L115.27686204913458,74.4489089792425L115.62482154877979,80.92272715135054L116.83831471420923,77.68581806529653L117.23616088047028,74.4489089792425L117.41700004695257,80.92272715135054L117.47436971356073,71.21199989318848L118.13037937955858,84.15963623740457L118.18026604617437,77.68581806529653L118.21768104613622,84.15963623740457L118.23015271279017,77.68581806529653L118.32493737936021,77.68581806529653L118.36734104598364,80.92272715135054L119.09693354523976,71.21199989318848L119.3950063782692,77.68581806529653L119.68559621130625,90.63345440951261L120.47255837717056,80.92272715135054L120.51745637712479,77.68581806529653L120.90033654340108,87.3965453234586L120.90158371006648,87.3965453234586L121.27448654301962,67.97509080713446L121.59251404269536,77.68581806529653L121.76836454251607,77.68581806529653L122.13503154214224,74.4489089792425L122.32958954194388,80.92272715135054L122.61519070831935,74.4489089792425L122.89081454137167,74.4489089792425L123.04795754121145,77.68581806529653L123.43208487415313,80.92272715135054L123.50566770741145,74.4489089792425L123.65408054059347,71.21199989318848L123.80872920710246,80.92272715135054L125.28412737226486,74.4489089792425L125.38390070549647,77.68581806529653L126.0336745381673,61.50127263502641L126.51258653767904,77.68581806529653L127.50408403666815,71.21199989318848L128.3746063691139,64.73818172108044L128.49807586898805,84.15963623740457L128.66769053548177,71.21199989318848L128.81984486865997,71.21199989318848L128.8921805352529,67.97509080713446L128.97823503516514,84.15963623740457L128.98322370182672,84.15963623740457L129.93730620085398,74.4489089792425L130.2378733672142,90.63345440951261L130.4910482002894,71.21199989318848L130.55465370022455,80.92272715135054L130.64070820013683,80.92272715135054L131.3266498661041,74.4489089792425L131.57857753251395,80.92272715135054L131.70953003238043,84.15963623740457L131.93277286548613,74.4489089792425L131.95023319880167,71.21199989318848L131.9951311987559,74.4489089792425L132.0462650320371,77.68581806529653L132.16349869858425,71.21199989318848L132.2246098651886,87.3965453234586L132.44909986495972,74.4489089792425L132.5576033648491,80.92272715135054L132.5800523648262,80.92272715135054L132.74841986465455,84.15963623740457L133.77982669693628,84.15963623740457L134.0828881966273,71.21199989318848L135.06814986228943,74.4489089792425L135.1517100288709,90.63345440951261L135.22778719546,74.4489089792425L136.2716656943957,84.15963623740457L136.4500105275472,80.92272715135054L137.10477302687963,87.3965453234586L137.59740385971068,77.68581806529653L137.76701852620442,74.4489089792425L137.78572602618536,74.4489089792425L138.60511452534993,77.68581806529653L138.92937785835267,90.63345440951261L139.1463848581314,74.4489089792425L139.23742802470525,71.21199989318848L139.41951435785293,77.68581806529653L139.44321052449544,71.21199989318848L139.5255235244115,74.4489089792425L139.72631735754013,77.68581806529653L139.8398095240911,77.68581806529653L139.89967352403005,74.4489089792425L140.1403766904513,67.97509080713446L140.5195153567314,80.92272715135054L140.66169235658646,71.21199989318848L141.83777052205403,61.50127263502641L142.03607002185186,84.15963623740457L142.36656918818156,87.3965453234586L142.5087461880366,80.92272715135054L142.82926802104313,77.68581806529653L143.35681952050527,74.4489089792425L143.41917785377504,80.92272715135054L143.63369052022298,77.68581806529653L143.6798356868426,80.92272715135054L143.9878858531952,74.4489089792425L144.55035801928838,77.68581806529653L144.58527868591943,74.4489089792425L144.80602718569438,64.73818172108044L145.5368668516159,84.15963623740457L145.56555168492,84.15963623740457L145.77632285137176,87.3965453234586L145.77757001803715,90.63345440951261L145.85614151795704,87.3965453234586L146.326323350811,80.92272715135054L146.41487218405405,77.68581806529653L146.5832396838824,80.92272715135054L147.00602918345132,87.3965453234586L147.21555318323772,71.21199989318848L148.03868318239847,67.97509080713446L148.86929618155162,80.92272715135054L149.11498801463446,77.68581806529653L149.16487468125024,84.15963623740457L149.9181633471489,71.21199989318848L150.08528368031185,71.21199989318848L150.33845851338702,87.3965453234586L150.5841503464699,84.15963623740457L150.9595475127538,74.4489089792425L150.98823234605788,84.15963623740457L151.22768834581376,71.21199989318848L151.6729268453598,80.92272715135054L151.76895867859523,80.92272715135054L152.02088634500504,84.15963623740457L152.12689551156362,77.68581806529653L152.32893651135763,87.3965453234586L152.6382338443756,71.21199989318848L153.12837034387587,84.15963623740457L153.30671517702737,67.97509080713446L153.56737301009497,87.3965453234586L153.76691967655816,80.92272715135054L153.98018517634074,61.50127263502641L154.17599034280778,77.68581806529653L154.73222667557397,71.21199989318848L155.02032217528026,84.15963623740457L155.4181683415413,80.92272715135054L155.53041334142685,87.3965453234586L155.81102584114075,80.92272715135054L156.19390600741704,87.3965453234586L157.08812450650535,74.4489089792425L157.59696850598652,77.68581806529653L157.64560800593696,80.92272715135054L157.65807967259087,71.21199989318848L158.35898733854293,64.73818172108044L158.58971317164105,74.4489089792425L159.28313783760072,71.21199989318848L159.4340450041135,71.21199989318848L159.5350655040105,84.15963623740457L159.6859726705233,77.68581806529653L160.01148317019144,74.4489089792425L160.24719766995113,84.15963623740457L161.08155216910043,64.73818172108044L161.3721420021375,74.4489089792425L161.94958016821542,80.92272715135054L162.02441016813913,80.92272715135054L162.15286833467482,77.68581806529653L162.2838208345413,77.68581806529653L162.49958066765467,87.3965453234586L163.16057900031407,67.97509080713446L163.41250666672389,74.4489089792425L163.78665666634242,77.68581806529653L164.41273433237077,80.92272715135054L165.16103433160782,77.68581806529653L165.2757736648242,74.4489089792425L165.43291666466396,77.68581806529653L165.7933478309631,74.4489089792425L166.37826899703344,84.15963623740457L166.42815566364922,74.4489089792425L167.04550316301982,77.68581806529653L167.43337199595769,87.3965453234586L167.64913182907105,77.68581806529653L168.00582149537402,74.4489089792425L168.4410826615969,74.4489089792425L168.80151382789612,67.97509080713446L169.35650299399694,64.73818172108044L169.36149166065852,64.73818172108044L169.43008582725525,74.4489089792425L169.795505660216,90.63345440951261L169.8728299934705,80.92272715135054L170.08858982658387,80.92272715135054L170.65106199267706,67.97509080713446L171.168636158816,71.21199989318848L171.5839426583926,93.87036349556664L171.65128965832395,80.92272715135054L171.71988382492066,71.21199989318848L171.72611965824763,71.21199989318848L172.06909049123126,77.68581806529653L172.12770732450485,77.68581806529653L172.13020165783564,74.4489089792425L172.3958481575648,87.3965453234586L172.53553082408905,64.73818172108044L173.22271965672175,80.92272715135054L173.96603098929722,71.21199989318848L174.35639415556588,74.4489089792425L175.05106598819094,67.97509080713446L175.53746098769508,67.97509080713446L175.82056782073977,67.97509080713446L175.8367809873899,80.92272715135054L176.09868598712285,87.3965453234586L176.20095365368527,77.68581806529653L176.38927582015992,84.15963623740457L176.42419648679098,84.15963623740457L176.68485431985854,80.92272715135054L176.82079548638663,74.4489089792425L176.89063681964876,80.92272715135054L176.95299515291848,84.15963623740457L177.52669181900023,84.15963623740457L177.61898215223948,80.92272715135054L177.95446998523076,80.92272715135054L178.01183965183895,77.68581806529653L178.11286015173596,74.4489089792425L179.56082065025964,80.92272715135054L179.58701115023294,93.87036349556664L179.5957413168907,71.21199989318848L179.6244261501948,77.68581806529653L179.6743128168106,74.4489089792425L180.17567381629942,71.21199989318848L180.43633164936702,71.21199989318848L180.941434148852,77.68581806529653L181.07113948205313,71.21199989318848L183.28236597979864,84.15963623740457L184.67669831171037,84.15963623740457L185.17431781120303,80.92272715135054L186.28304897673925,77.68581806529653L187.10742614256543,74.4489089792425L187.12613364254634,80.92272715135054L187.25459180908206,77.68581806529653L187.52772130880356,84.15963623740457L188.62148647435507,90.63345440951261L188.90833480739596,87.3965453234586L188.97069314066567,74.4489089792425L189.25629430704117,84.15963623740457L189.40969580688477,77.68581806529653L190.3912159725507,84.15963623740457L190.74790563885372,90.63345440951261L191.0085634719213,74.4489089792425L191.5585639713605,84.15963623740457L191.5635526380221,84.15963623740457L192.06740797084174,84.15963623740457L192.1023286374728,74.4489089792425L192.57001613699597,93.87036349556664L192.57375763699213,74.4489089792425L193.05142246983846,77.68581806529653L193.25471063629786,67.97509080713446L193.3233048028946,84.15963623740457L194.73883896811802,71.21199989318848L195.21775096762977,67.97509080713446L195.38611846745812,80.92272715135054L195.91366996692022,84.15963623740457L196.06208280010222,84.15963623740457L196.3751216331164,90.63345440951261L196.69439629945757,80.92272715135054L197.02115396579106,77.68581806529653L198.14235679798125,64.73818172108044L198.9193416305224,80.92272715135054L199.11764113032024,84.15963623740457L199.59281162983575,90.63345440951261L199.76616779632567,84.15963623740457L200.61174679546355,84.15963623740457L201.78408346093494,77.68581806529653L202.48124962689081,77.68581806529653L202.73317729330063,74.4489089792425L203.38669262596764,71.21199989318848L203.49644329252243,80.92272715135054L203.51265645917255,80.92272715135054L203.90177245877584,80.92272715135054L204.13374545853932,77.68581806529653L204.17614912516277,77.68581806529653L204.7298911245982,87.3965453234586L204.80846262451809,74.4489089792425L205.43454029054644,84.15963623740457L205.44825912386577,74.4489089792425L205.70143395694097,74.4489089792425L205.8461052901268,77.68581806529653L206.19531195643745,74.4489089792425L206.6143599560102,77.68581806529653L206.69792012259168,93.87036349556664L207.01095895560584,77.68581806529653L207.38760328855517,77.68581806529653L207.5784197883606,84.15963623740457L208.6509831206004,67.97509080713446L209.3281946199099,77.68581806529653L209.42422645314534,80.92272715135054L210.28601861893335,74.4489089792425L210.5579009519895,71.21199989318848L210.60155178527833,71.21199989318848L211.2126634513219,90.63345440951261L211.2899877845764,77.68581806529653L211.35858195117316,80.92272715135054L212.11062345040637,77.68581806529653L212.88760828294753,80.92272715135054L212.9749099495252,80.92272715135054L213.01107778282164,77.68581806529653L214.18840311495464,80.92272715135054L214.7571111143748,80.92272715135054L214.88681644757588,71.21199989318848L215.0676556140582,74.4489089792425L215.27468528051378,77.68581806529653L215.71493511339824,71.21199989318848L215.74361994670232,71.21199989318848L215.93069494651158,71.21199989318848L217.02695444539387,64.73818172108044L217.32876877841952,80.92272715135054L217.45847411162057,77.68581806529653L217.67298677806855,71.21199989318848L217.7615356113116,77.68581806529653L218.12944977760316,74.4489089792425L218.2653909441312,77.68581806529653L218.83409894355137,77.68581806529653L218.9787702767372,80.92272715135054L219.51879344285328,74.4489089792425L219.5973649427732,90.63345440951261L220.07378260895413,77.68581806529653L220.36437244199115,80.92272715135054L220.48410044186912,84.15963623740457L221.66392010733287,71.21199989318848L222.346120273304,80.92272715135054L222.5494084397634,74.4489089792425L222.84498693946202,77.68581806529653L223.0033771059672,77.68581806529653L223.65315093863805,77.68581806529653L223.87015793841678,74.4489089792425L223.97741427164078,80.92272715135054L224.42514710451763,93.87036349556664L225.7259419365247,71.21199989318848L225.84816426973342,74.4489089792425L225.86313026971817,77.68581806529653L225.9853526029269,80.92272715135054L226.1599559360822,77.68581806529653L226.37696293586094,74.4489089792425L227.1776439350446,80.92272715135054L227.28864176826477,84.15963623740457L227.6578031012217,77.68581806529653L227.8685742676735,80.92272715135054L227.87106860100425,80.92272715135054L228.12549060074488,80.92272715135054L228.63932326688766,74.4489089792425L228.64306476688384,77.68581806529653L228.76154560009638,67.97509080713446L229.09578626642227,71.21199989318848L229.15814459969204,74.4489089792425L229.521070099322,77.68581806529653L229.71313376579283,77.68581806529653L229.87401826562882,71.21199989318848L229.89397293227515,64.73818172108044L230.13342893203097,80.92272715135054L230.32798693183264,77.68581806529653L230.70961993144354,87.3965453234586L230.8692572646141,77.68581806529653L231.6824099304517,84.15963623740457L232.97572176246643,71.21199989318848L233.11789876232146,67.97509080713446L233.1403477622986,67.97509080713446L233.4434092619896,77.68581806529653L234.01336442807516,77.68581806529653L234.73422676067352,71.21199989318848L234.7367210940043,71.21199989318848L234.75293426065446,74.4489089792425L234.93626776046753,77.68581806529653L235.15701626024247,80.92272715135054L235.31665359341304,84.15963623740457L235.38524776000978,84.15963623740457L235.58728875980376,74.4489089792425L235.66586025972367,74.4489089792425L235.9664274260839,74.4489089792425L236.19216459252038,67.97509080713446L236.53887692550023,74.4489089792425L236.71597459198634,74.4489089792425L236.91053259178796,87.3965453234586L237.0277662583351,71.21199989318848L237.55905925779345,84.15963623740457L238.122778590552,67.97509080713446L238.61790375671387,80.92272715135054L238.8099674231847,74.4489089792425L239.0194914229711,77.68581806529653L239.64432192233403,77.68581806529653L239.69670292228062,77.68581806529653L240.44250858818688,58.26436354897238L240.76427758785886,80.92272715135054L241.1508992541313,71.21199989318848L241.37788358723324,71.21199989318848L241.39908542054496,77.68581806529653L242.05260075321198,80.92272715135054L242.20475508639018,64.73818172108044L242.5015807527542,87.3965453234586L242.99545875225067,87.3965453234586L243.3933049185117,77.68581806529653L244.0306070845286,77.68581806529653L244.29999508425396,80.92272715135054L244.78763725042344,84.15963623740457L244.90985958363214,84.15963623740457L244.99341975021363,77.68581806529653L245.452377083079,71.21199989318848L245.78038191607794,67.97509080713446L245.79784224939345,87.3965453234586L247.33185724782945,90.63345440951261L247.45782108103433,74.4489089792425L247.80702774734496,80.92272715135054L248.72120091307957,77.68581806529653L248.98934174613953,74.4489089792425L250.00453541177114,84.15963623740457L250.42358341134388,80.92272715135054L250.44353807799024,84.15963623740457L251.35022824373246,80.92272715135054L251.53231457688014,80.92272715135054L252.24070524282456,77.68581806529653L252.39909540932973,84.15963623740457L252.4352632426262,87.3965453234586L252.47392540925344,84.15963623740457L253.2197310751597,74.4489089792425L253.22222540849052,74.4489089792425L253.3980759083112,74.4489089792425L253.50907374153135,74.4489089792425L253.86701057449977,74.4489089792425L254.05283840764363,61.50127263502641L254.15136457420985,87.3965453234586L254.94580974006652,77.68581806529653L255.37982373962402,84.15963623740457L255.40476707293192,80.92272715135054L255.65170607268016,74.4489089792425L256.4336795718829,84.15963623740457L256.699326071612,84.15963623740457L256.84025590480167,77.68581806529653L256.99490457131066,67.97509080713446L257.2967189043363,87.3965453234586L257.46383923749926,67.97509080713446L257.58980307070414,74.4489089792425L257.6060162373543,74.4489089792425L257.92653807036083,90.63345440951261L258.26701457001366,80.92272715135054L258.5738175697009,74.4489089792425L259.04524656922024,80.92272715135054L259.1437727357864,77.68581806529653L259.3408250689189,71.21199989318848L259.6388979019483,74.4489089792425L260.26372840131125,87.3965453234586L260.70522540086114,80.92272715135054L260.8648627340317,80.92272715135054L261.0881055671374,71.21199989318848L261.19910340035756,71.21199989318848L261.7291492331505,74.4489089792425L262.0895803994497,74.4489089792425L262.1619160660426,80.92272715135054L262.82665589869816,71.21199989318848L263.4115770647685,64.73818172108044L263.74332339776356,77.68581806529653L264.01146423082355,77.68581806529653L265.40454939606985,84.15963623740457L265.5853885625521,71.21199989318848L265.76373339570364,90.63345440951261L265.8335747289658,74.4489089792425L266.03561572875975,74.4489089792425L266.28754339516956,71.21199989318848L266.52325789492926,84.15963623740457L266.7128272280693,84.15963623740457L266.72654606138866,67.97509080713446L267.4860705606143,84.15963623740457L267.49230639394125,74.4489089792425L267.77541322698596,77.68581806529653L267.83777156025565,64.73818172108044L267.86520922689436,80.92272715135054L268.01736356007257,80.92272715135054L268.08471056000394,77.68581806529653L268.4838038929303,87.3965453234586L269.0101082257271,74.4489089792425L269.35682055870694,61.50127263502641L270.72122089064914,87.3965453234586L270.95444105707804,84.15963623740457L270.97314855705895,80.92272715135054L271.061697390302,64.73818172108044L271.1988857234955,84.15963623740457L271.37972488997775,74.4489089792425L271.39219655663175,77.68581806529653L271.51192455650965,77.68581806529653" fill="none"></path></g></g></g></g></g></g><g transform="translate(30, 178)" clip-path="url(#clip_1)"><clipPath id="clip_1"><rect width="299" height="21"></rect></clipPath><g><g><line x1="0" y1="0" x2="0" y2="5" style="visibility: inherit;" fill="rgb(0, 0, 0)" stroke="rgb(204, 204, 204)" stroke-width="1px"></line><line x1="24.943333307902016" y1="0" x2="24.943333307902016" y2="5" style="visibility: inherit;" fill="rgb(0, 0, 0)" stroke="rgb(204, 204, 204)" stroke-width="1px"></line><line x1="49.88666661580403" y1="0" x2="49.88666661580403" y2="5" style="visibility: inherit;" fill="rgb(0, 0, 0)" stroke="rgb(204, 204, 204)" stroke-width="1px"></line><line x1="74.82999992370605" y1="0" x2="74.82999992370605" y2="5" style="visibility: inherit;" fill="rgb(0, 0, 0)" stroke="rgb(204, 204, 204)" stroke-width="1px"></line><line x1="99.77333323160806" y1="0" x2="99.77333323160806" y2="5" style="visibility: inherit;" fill="rgb(0, 0, 0)" stroke="rgb(204, 204, 204)" stroke-width="1px"></line><line x1="124.7166665395101" y1="0" x2="124.7166665395101" y2="5" style="visibility: inherit;" fill="rgb(0, 0, 0)" stroke="rgb(204, 204, 204)" stroke-width="1px"></line><line x1="149.6599998474121" y1="0" x2="149.6599998474121" y2="5" style="visibility: inherit;" fill="rgb(0, 0, 0)" stroke="rgb(204, 204, 204)" stroke-width="1px"></line><line x1="174.60333315531415" y1="0" x2="174.60333315531415" y2="5" style="visibility: inherit;" fill="rgb(0, 0, 0)" stroke="rgb(204, 204, 204)" stroke-width="1px"></line><line x1="199.54666646321613" y1="0" x2="199.54666646321613" y2="5" style="visibility: inherit;" fill="rgb(0, 0, 0)" stroke="rgb(204, 204, 204)" stroke-width="1px"></line><line x1="224.48999977111816" y1="0" x2="224.48999977111816" y2="5" style="visibility: inherit;" fill="rgb(0, 0, 0)" stroke="rgb(204, 204, 204)" stroke-width="1px"></line><line x1="249.4333330790202" y1="0" x2="249.4333330790202" y2="5" style="visibility: inherit;" fill="rgb(0, 0, 0)" stroke="rgb(204, 204, 204)" stroke-width="1px"></line><line x1="274.3766663869222" y1="0" x2="274.3766663869222" y2="5" style="visibility: inherit;" fill="rgb(0, 0, 0)" stroke="rgb(204, 204, 204)" stroke-width="1px"></line><line x1="299.3199996948242" y1="0" x2="299.3199996948242" y2="5" style="visibility: inherit;" fill="rgb(0, 0, 0)" stroke="rgb(204, 204, 204)" stroke-width="1px"></line></g><g transform="translate(0, 8)"><text style="text-anchor: middle; visibility: hidden; font-family: &quot;Helvetica Neue&quot;, sans-serif; font-size: 12px; font-weight: 200;" x="0" y="0" dx="0em" dy="0.95em" fill="rgb(50, 49, 63)" stroke="none" stroke-width="1px">-20k</text><text style="text-anchor: middle; visibility: inherit; font-family: &quot;Helvetica Neue&quot;, sans-serif; font-size: 12px; font-weight: 200;" x="24.943333307902016" y="0" dx="0em" dy="0.95em" fill="rgb(50, 49, 63)" stroke="none" stroke-width="1px">0</text><text style="text-anchor: middle; visibility: hidden; font-family: &quot;Helvetica Neue&quot;, sans-serif; font-size: 12px; font-weight: 200;" x="49.88666661580403" y="0" dx="0em" dy="0.95em" fill="rgb(50, 49, 63)" stroke="none" stroke-width="1px">20k</text><text style="text-anchor: middle; visibility: inherit; font-family: &quot;Helvetica Neue&quot;, sans-serif; font-size: 12px; font-weight: 200;" x="74.82999992370605" y="0" dx="0em" dy="0.95em" fill="rgb(50, 49, 63)" stroke="none" stroke-width="1px">40k</text><text style="text-anchor: middle; visibility: hidden; font-family: &quot;Helvetica Neue&quot;, sans-serif; font-size: 12px; font-weight: 200;" x="99.77333323160806" y="0" dx="0em" dy="0.95em" fill="rgb(50, 49, 63)" stroke="none" stroke-width="1px">60k</text><text style="text-anchor: middle; visibility: inherit; font-family: &quot;Helvetica Neue&quot;, sans-serif; font-size: 12px; font-weight: 200;" x="124.7166665395101" y="0" dx="0em" dy="0.95em" fill="rgb(50, 49, 63)" stroke="none" stroke-width="1px">80k</text><text style="text-anchor: middle; visibility: hidden; font-family: &quot;Helvetica Neue&quot;, sans-serif; font-size: 12px; font-weight: 200;" x="149.6599998474121" y="0" dx="0em" dy="0.95em" fill="rgb(50, 49, 63)" stroke="none" stroke-width="1px">100k</text><text style="text-anchor: middle; visibility: inherit; font-family: &quot;Helvetica Neue&quot;, sans-serif; font-size: 12px; font-weight: 200;" x="174.60333315531415" y="0" dx="0em" dy="0.95em" fill="rgb(50, 49, 63)" stroke="none" stroke-width="1px">120k</text><text style="text-anchor: middle; visibility: hidden; font-family: &quot;Helvetica Neue&quot;, sans-serif; font-size: 12px; font-weight: 200;" x="199.54666646321613" y="0" dx="0em" dy="0.95em" fill="rgb(50, 49, 63)" stroke="none" stroke-width="1px">140k</text><text style="text-anchor: middle; visibility: inherit; font-family: &quot;Helvetica Neue&quot;, sans-serif; font-size: 12px; font-weight: 200;" x="224.48999977111816" y="0" dx="0em" dy="0.95em" fill="rgb(50, 49, 63)" stroke="none" stroke-width="1px">160k</text><text style="text-anchor: middle; visibility: hidden; font-family: &quot;Helvetica Neue&quot;, sans-serif; font-size: 12px; font-weight: 200;" x="249.4333330790202" y="0" dx="0em" dy="0.95em" fill="rgb(50, 49, 63)" stroke="none" stroke-width="1px">180k</text><text style="text-anchor: middle; visibility: inherit; font-family: &quot;Helvetica Neue&quot;, sans-serif; font-size: 12px; font-weight: 200;" x="274.3766663869222" y="0" dx="0em" dy="0.95em" fill="rgb(50, 49, 63)" stroke="none" stroke-width="1px">200k</text><text style="text-anchor: middle; visibility: hidden; font-family: &quot;Helvetica Neue&quot;, sans-serif; font-size: 12px; font-weight: 200;" x="299.3199996948242" y="0" dx="0em" dy="0.95em" fill="rgb(50, 49, 63)" stroke="none" stroke-width="1px">220k</text></g><line x1="0" y1="0" x2="299.3199996948242" y2="0" fill="rgb(0, 0, 0)" stroke="rgb(204, 204, 204)" stroke-width="1px"></line></g></g></g></g></svg>